<?xml version="1.0" encoding="utf-8"?>
<!-- Generator: Adobe Illustrator 19.1.0, SVG Export Plug-In . SVG Version: 6.00 Build 0)  -->
<svg version="1.1" id="Layer_1" xmlns="http://www.w3.org/2000/svg" xmlns:xlink="http://www.w3.org/1999/xlink" x="0px" y="0px"
	 viewBox="0 0 100 94.09" style="enable-background:new 0 0 100 94.09;" xml:space="preserve">
<g>
	<path style="fill:#FFFFFF;" d="M0,27.34c0.01-4.37,0.93-8.49,2.88-12.35c2.57-5.1,6.38-9.03,11.4-11.76
		c3.12-1.7,6.46-2.72,9.99-3.1c3.91-0.43,7.75-0.04,11.49,1.19c3.62,1.19,6.84,3.08,9.67,5.64c1.63,1.48,3.05,3.13,4.27,4.96
		c0.19,0.28,0.21,0.28,0.4-0.01c2.54-3.71,5.79-6.63,9.75-8.74c3.27-1.75,6.75-2.79,10.44-3.1c6.19-0.52,11.93,0.86,17.15,4.23
		c5.51,3.57,9.27,8.51,11.3,14.75c0.74,2.29,1.14,4.65,1.23,7.06c0.2,5.56-0.85,10.88-3.18,15.94c-1.13,2.45-2.52,4.75-4.11,6.93
		c-1.61,2.22-3.39,4.29-5.28,6.27c-2.29,2.41-4.7,4.7-7.18,6.92c-2.64,2.37-5.3,4.73-7.94,7.09c-2.16,1.93-4.3,3.89-6.38,5.91
		c-2.31,2.23-4.53,4.53-6.67,6.92c-3.35,3.74-6.32,7.77-9.05,11.98c-0.24,0.38-0.25,0.38-0.5,0.01c-1.38-1.99-2.75-3.99-4.23-5.9
		c-1.65-2.13-3.38-4.19-5.2-6.18c-1.55-1.69-3.13-3.35-4.77-4.95c-1.9-1.86-3.85-3.66-5.82-5.44c-2.46-2.22-4.97-4.39-7.46-6.58
		c-2.23-1.96-4.45-3.93-6.59-5.99c-3.43-3.3-6.64-6.79-9.29-10.76c-3.14-4.72-5.19-9.87-5.95-15.5C0.2,31.39,0.06,30,0.04,28.6
		C0.03,28.17-0.01,27.73,0,27.34z"/>
	<path style="fill:#FF5757;" d="M4.21,27.61c-0.04-3.9,0.76-7.41,2.41-10.72c1.45-2.93,3.45-5.43,5.98-7.5
		c3.53-2.9,7.58-4.62,12.12-5.09c5.85-0.61,11.21,0.76,15.99,4.22c3.32,2.4,5.77,5.51,7.46,9.24c0.52,1.15,1.07,2.3,1.6,3.45
		c0.03,0.07,0.04,0.18,0.13,0.18c0.1,0,0.11-0.12,0.15-0.19c0.69-1.48,1.35-2.97,2.09-4.43c2.12-4.21,5.28-7.43,9.39-9.72
		c2.87-1.6,5.96-2.53,9.23-2.79c5.2-0.42,10.03,0.75,14.42,3.58c4.29,2.77,7.34,6.55,9.17,11.32c0.8,2.1,1.29,4.27,1.41,6.52
		c0.35,6.35-1.13,12.24-4.37,17.71c-1.48,2.5-3.24,4.79-5.14,6.97c-1.65,1.89-3.42,3.67-5.23,5.41c-2.04,1.96-4.15,3.85-6.27,5.73
		c-1.8,1.59-3.6,3.19-5.39,4.79c-2.32,2.07-4.6,4.18-6.83,6.34c-2.04,1.98-4.01,4.02-5.91,6.13c-2,2.22-3.9,4.52-5.7,6.91
		c-0.29,0.39-0.58,0.78-0.86,1.17c-0.17,0.23-0.2,0.23-0.38,0c-1.23-1.65-2.51-3.26-3.85-4.83c-1.29-1.51-2.61-3-3.99-4.43
		c-0.99-1.03-1.96-2.06-2.98-3.06c-2.22-2.19-4.5-4.31-6.82-6.39c-2.42-2.17-4.88-4.31-7.32-6.46c-3.04-2.68-6.04-5.38-8.85-8.3
		c-2.82-2.93-5.38-6.06-7.4-9.61c-2.22-3.9-3.59-8.08-4.06-12.55C4.28,29.94,4.2,28.67,4.21,27.61z"/>
</g>
</svg>
