<?xml version="1.0" encoding="utf-8"?>
<!-- Generator: Adobe Illustrator 19.1.0, SVG Export Plug-In . SVG Version: 6.00 Build 0)  -->
<svg version="1.1" id="Layer_1" xmlns="http://www.w3.org/2000/svg" xmlns:xlink="http://www.w3.org/1999/xlink" x="0px" y="0px"
	 viewBox="65 65 350 350" style="enable-background:new 65 65 350 350;" xml:space="preserve">
<g>
	<path style="fill:#FFFFFF;" d="M239.994,388.618C157.098,388.615,89.901,321.954,90,239.822
		c0.098-81.994,67.25-148.444,150.007-148.439C322.904,91.387,390.092,158.04,390,240.181
		C389.908,322.171,322.755,388.622,239.994,388.618z M313.216,166.045c-31.574,29.199-62.852,58.123-94.465,87.356
		c-15.62-15.751-31.098-31.361-46.363-46.755c-9.911,9.816-19.615,19.426-30.062,29.774c0.982,0.643,2.209,1.182,3.097,2.063
		c21.968,21.851,43.93,43.709,65.799,65.66c2.586,2.596,3.543,3.261,6.993,0.069c39.656-36.682,79.311-73.366,118.98-110.033
		c0.988-0.913,2.136-1.653,3.336-2.569C331.132,182.815,322.315,174.562,313.216,166.045z"/>
</g>
</svg>
