<?xml version="1.0" encoding="utf-8"?>
<!-- Generator: Adobe Illustrator 19.1.0, SVG Export Plug-In . SVG Version: 6.00 Build 0)  -->
<svg version="1.1" id="Layer_1" xmlns="http://www.w3.org/2000/svg" xmlns:xlink="http://www.w3.org/1999/xlink" x="0px" y="0px"
	 viewBox="65 65 350 350" style="enable-background:new 65 65 350 350;" xml:space="preserve">
<g>
	<path style="fill:#FFFFFF;" d="M79.451,145.767c0-7.556,0.045-15.112-0.02-22.668c-0.031-3.438,1.438-5.087,4.949-5.352
		c18.961-1.428,37.743-4.048,56.262-8.488c34.594-8.296,66.639-22.318,95.866-42.629c3.096-2.151,5.405-2.189,8.498-0.015
		c34.907,24.541,73.345,40.674,115.511,47.472c11.64,1.876,23.472,2.599,35.23,3.693c3.35,0.311,4.876,1.928,4.822,5.125
		c-0.904,53.563-8.829,105.733-30.966,155.051c-24.012,53.495-61.569,95.188-110.7,126.746c-5.225,3.356-10.52,6.631-15.987,9.563
		c-1.539,0.826-4.137,1.006-5.69,0.284c-46.544-21.639-85.399-52.426-113.233-96.103c-17.192-26.977-28.504-56.376-35.578-87.499
		C82.044,202.907,79.51,174.453,79.451,145.767z M239.657,237.632c0,46.331-0.006,92.663,0.007,138.993
		c0.001,5.763,3.187,7.933,7.756,5.227c47.104-27.881,82.181-66.357,103.088-117.265c15.864-38.629,22.014-79.093,22.597-120.59
		c0.092-6.528-0.897-7.217-7.564-7.841c-9.688-0.908-19.433-1.684-28.992-3.407c-32.157-5.799-61.268-18.885-87.808-37.826
		c-2.022-1.443-4.026-2.944-6.659-1.579c-2.673,1.385-2.435,3.925-2.433,6.392C239.66,145.702,239.658,191.667,239.657,237.632z"/>
</g>
</svg>
