<?xml version="1.0" encoding="utf-8"?>
<!-- Generator: Adobe Illustrator 19.1.0, SVG Export Plug-In . SVG Version: 6.00 Build 0)  -->
<svg version="1.1" id="Layer_1" xmlns="http://www.w3.org/2000/svg" xmlns:xlink="http://www.w3.org/1999/xlink" x="0px" y="0px"
	 viewBox="65 65 350 350" style="enable-background:new 65 65 350 350;" xml:space="preserve">
<g>
	<path style="fill:#FFFFFF;" d="M227.67,65c7.297,0,14.594,0,21.891,0c4.069,0.497,8.137,0.995,12.598,1.54
		c-39.435,28.939-45.096,79.3-24.265,114.036c10.322,17.212,24.784,29.695,43.636,36.651c24.784,9.145,48.947,6.942,72.186-5.148
		c1.628,1.897,3.057,3.663,4.597,5.327c1.549,1.671,3.003,3.547,4.861,4.793c5.83,3.909,5.857,8.565,3.741,14.852
		c-4.7,13.956-12.261,26.372-19.15,39.206c-5.419,10.095-10.998,20.32-14.62,31.121c-9.846,29.361-9.968,59.549-5.22,89.886
		c0.926,5.916,2.108,11.794,3.181,17.737c-49.464,0-98.648,0-148.595,0c0-5.486,0.16-10.727-0.036-15.956
		c-0.331-8.811-3.031-16.745-9.212-23.301c-2.5-2.653-5.051-5.303-7.195-8.235c-3.382-4.622-7.979-6.248-13.384-6.081
		c-2.723,0.085-5.448,0.476-8.146,0.901c-6.894,1.085-13.757,1.882-20.705,0.288c-13.234-3.035-24.115-12.959-24.377-27.772
		c-0.052-2.963-0.327-5.924-0.3-8.884c0.034-3.709-1.019-6.893-3.556-9.67c-3.158-3.458-3.47-7.521-2.046-11.829
		c0.376-1.138,0.757-2.276,1.149-3.456c-4.019-2.385-7.058-5.336-7.129-10.022c-0.044-2.92,0.475-5.879,1.018-8.77
		c0.687-3.655,1.655-7.258,2.581-11.22c-3.902-0.209-7.292-0.483-10.684-0.553c-7.191-0.149-12.771-2.773-15.633-9.79
		c0-1.824,0-3.649,0-5.472c2.272-3.634,4.032-7.752,6.919-10.804c6.475-6.846,11.001-14.738,14.479-23.355
		c7.354-18.223,10.364-37.4,12.853-56.751c3.569-27.741,15.977-50.839,37.855-68.474c19.873-16.018,43.213-23.944,68.038-28.015
		C212.508,66.547,220.111,65.909,227.67,65z"/>
	<path style="fill:#FFFFFF;" d="M318.655,65c3.003,0.588,6.029,1.082,9.007,1.777c52.295,12.205,73.516,73.643,39.933,115.57
		c-0.567,0.709-1.142,1.412-1.936,2.392c2.735,2.396,4.059,6.27,9.244,5.271c2.169-0.418,5.414,1.262,7.21,2.987
		c10.109,9.712,19.969,19.685,29.823,29.66c4.225,4.277,4.234,10.361,0.282,14.415c-4.029,4.134-10.254,4.119-14.65-0.233
		c-9.883-9.784-19.783-19.556-29.424-29.576c-1.738-1.805-3.361-4.892-3.109-7.174c0.406-3.685-1.126-5.709-3.457-7.793
		c-0.501-0.448-0.816-1.105-1.369-1.88c-1.414,1.076-2.478,1.859-3.513,2.679c-43.14,34.193-107.076,9.421-115.862-44.895
		c-6.467-39.968,21.755-77.637,61.864-82.595c0.772-0.096,1.518-0.4,2.276-0.607C309.534,65,314.094,65,318.655,65z
		 M253.997,136.613c-0.338,31.754,25.508,57.891,57.517,58.16c31.828,0.268,57.926-25.481,58.257-57.48
		c0.329-31.819-25.492-58.034-57.406-58.281C280.179,78.764,254.342,104.26,253.997,136.613z"/>
</g>
</svg>
