<?xml version="1.0" encoding="utf-8"?>
<!-- Generator: Adobe Illustrator 19.1.0, SVG Export Plug-In . SVG Version: 6.00 Build 0)  -->
<svg version="1.1" id="Layer_1" xmlns="http://www.w3.org/2000/svg" xmlns:xlink="http://www.w3.org/1999/xlink" x="0px" y="0px"
	 viewBox="65 65 350 350" style="enable-background:new 65 65 350 350;" xml:space="preserve">
<g>
	<path style="fill:#FFFFFF;" d="M289.219,306.254c18.753-21.913,41.179-31.258,68.874-24.159
		c29.571,7.579,50.555,37.236,48.833,68.172c-1.84,33.062-24.894,61.219-56.633,62.967c-42.975,2.365-86.18,2.002-129.24,0.948
		c-37.149-0.909-74.029-5.762-109.785-16.809c-4.113-1.27-8.207-2.643-12.208-4.225c-21.475-8.488-22.555-10.411-22.273-33.383
		c0.072-5.908-1.066-11.866-2.005-17.745c-5.135-32.174,1.113-62.998,13.226-92.395c15.763-38.256,35.001-75.139,49.569-113.809
		c11.01-29.229,32.168-47.749,55.149-65.906c8.064-6.371,15.418-6.554,23.396-0.471c10.545,8.04,21.108,16.058,31.782,23.925
		c8.592,6.331,10.588,13.905,5.162,23.275c-2.395,4.135-3.305,7.3,0.838,11.998c5.405,6.13-0.291,15.674-9.056,17.617
		c-6.372,1.412-12.915,2.872-18.769,5.617c-9.554,4.481-18.984,6.985-29.738,5.741c-3.466-0.401-9.088,2.549-10.906,5.63
		c-13.758,23.296-21.148,48.729-20.599,75.799c0.504,24.849,2.537,49.672,4.181,74.487c0.174,2.632,1.688,6.466,3.634,7.31
		c1.765,0.764,5.563-1.175,7.451-2.981c29.376-28.112,68.178-33.477,104.173-14.184
		C285.714,304.441,287.169,305.184,289.219,306.254z"/>
</g>
</svg>
