<?xml version="1.0" encoding="utf-8"?>
<!-- Generator: Adobe Illustrator 19.1.0, SVG Export Plug-In . SVG Version: 6.00 Build 0)  -->
<svg version="1.1" id="Layer_1" xmlns="http://www.w3.org/2000/svg" xmlns:xlink="http://www.w3.org/1999/xlink" x="0px" y="0px"
	 viewBox="0 0 300 300" style="enable-background:new 0 0 300 300;" xml:space="preserve">
<g>
	<circle cx="142.389" cy="150" r="42.809"/>
	<path d="M142,228.289c0,0.001-0.181,0.009-0.305,0.009c-42.863,0-77.578-34.747-77.578-77.611s34.699-77.611,77.562-77.611
		c0.124,0,0.321,0.009,0.321,0.009V52.084C88,52.257,44.395,96.025,44.395,150S88,247.743,142,247.916V228.289z"/>
	<path d="M142.909,0C142.745,0,142,0.012,142,0.012v32.172c66,0.306,118.318,53.402,118.318,118.87S208,269.617,142,269.924v30.064
		c0,0.001,0.745,0.012,0.909,0.012c82.843,0,150-67.157,150-150S225.752,0,142.909,0z"/>
</g>
</svg>
