<?xml version="1.0" encoding="utf-8"?>
<!-- Generator: Adobe Illustrator 18.1.1, SVG Export Plug-In . SVG Version: 6.00 Build 0)  -->
<svg version="1.1" id="Layer_1" xmlns="http://www.w3.org/2000/svg" xmlns:xlink="http://www.w3.org/1999/xlink" x="0px" y="0px"
	 viewBox="0 0 100 100" style="enable-background:new 0 0 100 100;" xml:space="preserve">
<style type="text/css">
	.st0{fill:#FFFFFF;}
</style>
<g>
	<g>
		<g>
			<path class="st0" d="M1.1,43.8L39.1,4.7C42,1.7,45.9,0,50,0c4.1,0,8,1.7,11,4.7l37.9,39.1l-12.2,0L54.8,11
				c-1.3-1.3-3-2.1-4.8-2.1c-1.8,0-3.6,0.7-4.8,2.1L13.3,43.8L1.1,43.8z"/>
		</g>
	</g>
	<path class="st0" d="M52.9,13.6c-1.7-1.7-4.2-1.7-5.9,0L17,43.8V100h20V74.9c0-2.2,1.8-3.9,3.9-3.9h18.1c2.2,0,3.9,1.8,3.9,3.9V100
		h20V43.8L52.9,13.6z"/>
</g>
</svg>
