<?xml version="1.0" encoding="utf-8"?>
<!-- Generator: Adobe Illustrator 18.1.1, SVG Export Plug-In . SVG Version: 6.00 Build 0)  -->
<svg version="1.1" id="Layer_1" xmlns="http://www.w3.org/2000/svg" xmlns:xlink="http://www.w3.org/1999/xlink" x="0px" y="0px"
	 viewBox="0 0 100 100" style="enable-background:new 0 0 100 100;" xml:space="preserve">
<style type="text/css">
	.st0{fill:#FFFFFF;}
</style>
<path class="st0" d="M98.5,39.5L100,9.4l-11.6,8.5C78.9,6.6,64.8,0,50,0C22.4,0,0,22.4,0,50s22.4,50,50,50
	c13.8,0,27.1-5.8,36.5-15.8l-6.9-6.5C71.9,86,61.4,90.6,50,90.6C27.7,90.6,9.5,72.4,9.5,50C9.5,27.6,27.7,9.4,50,9.4
	c11.7,0,23,5.2,30.6,14l-11.3,8.2L98.5,39.5z"/>
</svg>
