<?xml version="1.0" encoding="utf-8"?>
<!-- Generator: Adobe Illustrator 18.1.1, SVG Export Plug-In . SVG Version: 6.00 Build 0)  -->
<svg version="1.1" id="Layer_1" xmlns="http://www.w3.org/2000/svg" xmlns:xlink="http://www.w3.org/1999/xlink" x="0px" y="0px"
	 viewBox="0 0 155.8 1080" style="enable-background:new 0 0 155.8 1080;" xml:space="preserve">
<g>
	<path d="M19.4,1080c-0.5,0-1,0-1.5,0c-3-20.2-6-40.4-9.2-61.9c-3.2,21.6-6.2,41.8-9.3,61.9c-0.2,0-0.3,0-0.5,0
		c-0.4-4,0.3-7.2,0.7-10.5c2.4-16.9,4.9-33.8,7.4-50.6c0.7-4.5,0.7-8.4,0-12.9c-2.5-16.8-4.9-33.8-7.4-50.5
		c-1.1-7.3-1.1-13.9,0-21.1c2.5-16.5,4.8-33.2,7.3-49.7c0.8-5.1,0.7-9.5,0-14.5c-2.4-16-4.7-32.2-7.1-48.2c-1.2-8.1-1.3-15.4,0-23.5
		c2.4-15.4,4.5-31.3,6.9-46.6c1-6.6,1-12.1,0-18.4c-2.4-15.7-4.6-31.7-7-47.4c-1.1-7.2-1.2-13.9-0.1-21.2c2.4-15.7,4.5-31.8,7-47.4
		c1.1-7.1,1-13-0.1-19.9c-2.3-14.6-4.3-29.7-6.6-44.3c-1.4-8.9-1.5-16.9,0-25.9c2.4-15.1,4.5-30.7,6.8-45.8c0.9-6.1,1-11.3,0-17.6
		C4.4,448.8,2.3,433.1,0,418c-1.4-8.9-1.4-16.8,0-25.8c2.4-15,4.5-30.6,6.8-45.8c0.9-6.1,1-11.4,0-17.7c-2.4-15.4-4.5-31.2-6.9-46.6
		c-1.3-8.4-1.3-15.9,0-24.3c2.4-15.4,4.5-31.2,6.9-46.6c0.9-5.9,0.9-11,0-16.9c-2.4-16-4.7-32.2-7.1-48.2c-1.1-7.5-1.2-14.4,0-21.9
		c2.5-16.2,4.7-32.8,7.2-49c0.8-5.4,0.8-9.9,0-15.2C4.4,43.5,2,26.9-0.4,10.2c-0.4-2.5-1.1-5.1-0.2-9.9c3.1,21,6,40.8,9,61
		c1.1-2.8,1.4-6.3,1.8-9.2c2.3-15.5,4.6-31.1,6.8-46.7c0.3-2.2,0.6-5.3,1.5-5c0.7,0.3,1,2.9,1.3,4.9c2.3,15.8,4.6,31.7,7,47.5
		c0.4,2.8,0.6,6.6,1.8,8.2c0.5-3.1,1-6.1,1.4-9.1c2.1-14.3,4.2-28.6,6.3-42.9c0.5-3.2,0.6-8.4,1.8-8.4c1.4-0.1,1.5,5.5,2,8.8
		c1.3,8.3,2.5,16.8,3.7,25.3c1.3,8.8,2.6,17.6,3.9,26.7c1.2-3.1,1.5-6.8,1.9-10c2.2-14.5,4.2-29.1,6.4-43.6c0.4-2.9,0.6-7.5,1.8-7.3
		c1.1,0.2,1.3,4.7,1.8,7.6c2.3,15.8,4.6,31.7,7,47.5c0.3,1.7,0.6,4.3,1,4.6c0.8,0.5,0.9-2.8,1.2-4.6c2.5-16.8,4.9-33.7,7.4-50.5
		c1-6.6,1.6-6.6,2.7-0.3c0.6,3.5,1.1,7.1,1.6,10.7c2.2,15.2,4.5,30.4,6.7,45.8c1.1-2.3,1.3-5.6,1.7-8.3c2.2-15,4.4-30.2,6.6-45.2
		c0.4-2.9,0.6-7.4,1.8-7.3c1,0.1,1.2,4.3,1.6,7c2.3,15.3,4.5,30.7,6.7,45.9c0.4,2.6,0.5,6.1,1.7,7.5c0.4-2.5,0.8-4.9,1.2-7.5
		c2.3-15.8,4.6-31.7,6.9-47.5c0.3-2.2,0.5-5.4,1.4-5.6c1-0.2,1.2,3.4,1.6,5.8c1,6.6,1.9,13.3,2.9,19.9c1.7,11.6,3.4,23.3,5.2,35.2
		c1.1-2.7,1.4-6.2,1.8-9.1c2.1-14,4.1-28.1,6.2-42.1c0.5-3.6,0.7-9.8,2.1-9.5c1.3,0.3,1.5,6.2,2.1,9.9c2.2,14.5,4.2,29.1,6.4,43.6
		c0.3,2.1,0.4,5.6,1.4,5.3c0.7-0.2,0.9-3.2,1.2-5.1c2.3-15.6,4.5-31.2,6.8-46.7c0.4-2.6,0.5-6.2,1.8-6.7c0.3,3.8-0.4,6.7-0.8,9.6
		c-2.4,16.4-4.7,32.8-7.2,49c-0.9,5.9-1,10.7-0.1,16.8c2.6,16.9,5,34.2,7.5,51.3c0.8,5.6,0.8,10.6,0,16.2c-2.6,17-4.9,34.3-7.5,51.3
		c-0.9,6-0.8,10.9,0.1,16.8c2.6,16.7,4.9,33.8,7.4,50.5c0.9,5.9,0.9,11.1,0,17c-2.6,17-4.9,34.3-7.5,51.3c-0.9,5.7-0.8,10.4,0.1,16
		c2.4,15.9,4.6,32.3,7.1,48.1c1.2,7.5,1.3,14,0.1,21.7c-2.5,15.6-4.6,31.8-7,47.3c-1.1,6.8-1,12.3,0,19.1
		c2.5,16.1,4.8,32.7,7.2,48.9c0.9,6.2,1,11.6,0,17.8c-2.5,16.7-4.9,33.8-7.4,50.5c-0.9,5.6-0.9,10.2-0.1,16
		c2.6,16.9,5,34.3,7.5,51.3c0.9,5.9,0.9,11.1,0,17c-2.5,16.5-4.8,33.3-7.3,49.7c-1,6.5-1.1,11.7-0.1,18.3
		c2.6,16.6,4.9,33.7,7.4,50.5c0.8,5.6,0.8,10.6,0,16.2c-2.5,17-4.9,34.3-7.5,51.2c-0.9,6.1-0.8,11,0.1,16.8
		c2.4,15.7,4.6,31.8,7,47.4c1.2,7.8,1.3,14.5,0,22.4c-2.5,15.5-4.6,31.8-7,47.3c-1,6.6-1,11.8,0,18.3c2.5,15.9,4.7,32.1,7.1,48.2
		c0.4,3,1.1,5.8,0.9,9.6c-0.3,0-0.7,0-1,0c-2.9-20.3-5.8-40.6-8.9-62.7c-3.3,22.4-6.2,42.6-9.1,62.7c-0.5,0-1,0-1.5,0
		c-2.6-18.1-5.3-36.3-7.9-54.3c-0.4-2.7-1-9-2-1.8c-2.7,18.6-5.4,37.4-8,56.1c-0.5,0-1,0-1.5,0c-3-20.2-6.1-40.3-9.3-61.9
		c-3.2,21.5-6.2,41.7-9.2,61.9c-0.5,0-1,0-1.5,0c-2.7-18.6-5.4-37.2-8-55.8c-0.7-4.7-1.3-4.8-1.9,0c-2.7,18.6-5.4,37.2-8,55.8
		c-0.5,0-1,0-1.5,0c-3-20.2-6-40.4-9.2-61.9c-3.3,21.6-6.3,41.7-9.3,61.9c-0.5,0-1,0-1.5,0c-2.5-20.9-5.8-40.4-8.8-62.3
		c-3.3,22.2-6.2,42.2-9.2,62.3c-0.5,0-1,0-1.5,0c-2.7-18.3-5.3-36.7-8-55c-0.5-3.8-1.1-7.3-2.1-0.9
		C24.8,1042.8,22.1,1061.4,19.4,1080z M97.2,1075.5c2.3-16,4.1-30.8,6.6-44.2c2.4-13.2,2.4-24.5,0-37.7c-2.4-13.1-4.2-27.6-6.2-41.6
		c-0.4,0.9-0.6,1.1-0.7,1.5c-1.7,11.7-3.2,24.1-5.3,34.9c-3.3,16.9-3.4,32.1,0,49.1C93.8,1048.6,95.2,1061.6,97.2,1075.5z
		 M136.7,139.9c-3.1,21.3-5.9,40.4-8.6,59.5c-0.5,3.2-0.2,6.1,0.2,9c2.5,16.8,4.9,33.7,7.4,50.5c0.2,1.5,0.5,3.6,0.9,3.8
		c0.7,0.5,0.8-2.3,1.1-3.9c2.5-17.1,5-34.2,7.5-51.3c0.4-2.6,0.6-5.2,0.2-8.2C142.6,180.3,139.8,161.1,136.7,139.9z M97.3,535.7
		c3.1-21.4,5.9-40.8,8.7-60.2c0.5-3.3,0-6.1-0.4-8.9c-2.4-16.6-4.8-33.2-7.3-49.8c-0.2-1.6-0.3-4.5-1.1-4c-0.4,0.2-0.7,2.3-0.9,3.8
		c-2.5,17.1-5,34.2-7.5,51.3c-0.4,2.9-0.7,5.7-0.2,8.9C91.4,495.7,94.2,514.6,97.3,535.7z M136.7,680c-2.9,20-5.5,38.2-8.2,56.1
		c-0.8,5.2-0.7,9.5,0.1,14.5c2,13.1,3.9,26.5,5.8,39.8c0.7,4.5,1.3,8.9,2.3,15.2c3.1-21.4,5.9-40.8,8.7-60.1
		c0.3-2.3,0.2-4.5-0.1-6.6C142.5,719.9,139.8,701,136.7,680z M107.1,603.2c3.1-21.5,5.9-40.6,8.7-59.7c0.6-3.9,0-7.2-0.5-10.5
		c-2.1-14.6-4.2-29.1-6.4-43.6c-0.5-3.4-0.8-7.3-1.9-10.4c-2.9,19.8-5.7,38.9-8.4,58c-0.3,2.2-0.4,4.4-0.1,6.6
		C101.2,562.7,104,581.8,107.1,603.2z M57.9,265.6c3.1-21.5,5.9-40.7,8.7-60.1c0.5-3.2,0-6.2-0.4-9c-2.4-16.3-4.7-32.7-7.1-49
		c-0.3-1.7-0.4-4.3-1-4.5c-0.9-0.3-0.9,2.8-1.2,4.7c-2.4,16.3-4.7,32.7-7.2,48.9c-0.7,4.6-0.6,8.5,0,12.9c1.5,9.8,2.9,19.8,4.4,29.7
		C55.2,247.5,56.4,255.5,57.9,265.6z M68,870c0.2-1.1,0.5-2.3,0.7-3.8c2.5-17.1,5-34.2,7.5-51.2c0.5-3.7,0.4-7-0.1-10.5
		c-2.4-16.5-4.8-33.1-7.3-49.7c-0.2-1.7-0.3-4.3-1-4.4c-0.7,0-0.8,2.6-1.1,4.3c-2.5,16.8-4.9,33.7-7.4,50.5
		c-0.5,3.2-0.7,6.3-0.2,9.8c2.5,17.3,5.1,34.7,7.6,52C67,868.3,67.2,870.2,68,870z M57.9,805.6c3.1-21.3,5.8-40.2,8.6-59
		c0.6-3.8,0.2-7.2-0.3-10.6c-2.3-16.1-4.7-32.1-7-48.2c-0.3-1.9-0.4-4.9-1.2-4.7c-0.6,0.2-0.8,2.8-1,4.5
		c-2.4,16.6-4.8,33.1-7.3,49.7c-0.4,2.9-0.8,5.8-0.3,8.9C52,765.3,54.8,784.4,57.9,805.6z M67.7,330.2c0.6-0.1,0.7-1.8,1-3.3
		c2.6-17.6,5.1-35.2,7.7-52.8c0.5-3.2,0.3-6-0.1-9c-2.5-17.1-5-34.1-7.5-51.3c-0.7-5.1-1.3-4.3-1.9,0.2c-2.5,17.4-5,34.7-7.6,52
		c-0.5,3.4-0.4,6.4,0.1,9.7c2.5,16.8,4.9,33.6,7.4,50.5C66.9,327.8,67.1,329.6,67.7,330.2z M28.3,603.2c3.1-21.2,5.8-40.1,8.6-58.9
		c0.6-3.8,0.2-7.2-0.3-10.6c-2.3-16.1-4.7-32.1-7-48.1c-0.3-1.9-0.4-4.9-1.2-4.7c-0.7,0.1-0.8,2.7-1,4.4
		c-2.4,16.6-4.8,33.1-7.3,49.7c-0.4,2.9-0.8,5.8-0.3,8.9C22.5,562.9,25.2,582,28.3,603.2z M18.6,410.3c-0.4,2.4-0.5,3.1-0.6,3.9
		c-2.7,18.1-5.3,36.3-8,54.4c-0.6,4.2-0.2,7.7,0.3,11.3c2.3,15.8,4.6,31.7,6.9,47.5c0.3,1.9,0.4,5,1.2,4.9c0.8,0,0.9-3,1.2-4.9
		c2.3-15.6,4.5-31.2,6.8-46.7c0.8-5.6,0.9-10.5,0-16.2c-1.4-8.8-2.6-17.8-3.9-26.8C21.3,429.2,20.1,420.6,18.6,410.3z M155.4,270.5
		c-0.2-1.9-0.2-3.7-0.4-5.1c-2.5-17.4-5-34.7-7.5-52c-1-6.6-1.4-1.6-1.9,1.2c-2.4,16.5-4.8,33.1-7.3,49.6c-0.7,4.5-0.7,8.4,0,12.9
		c2.4,16,4.7,32.1,7,48.1c0.3,1.9,0.4,4.9,1.2,4.8c0.6-0.1,0.8-2.7,1-4.4c2.4-16.3,4.8-32.6,7.1-48.9
		C155,274.7,155.2,272.5,155.4,270.5z M146.7,870.2c0.2-1.1,0.6-2.4,0.8-3.8c2.5-16.8,4.9-33.7,7.4-50.4c0.7-4.6,0.5-8.6-0.2-13
		c-2.4-16-4.7-32.1-7-48.1c-0.3-1.7-0.4-4.3-1-4.5c-0.7-0.2-0.8,2.5-1.1,4.2c-2.5,16.8-4.9,33.6-7.4,50.4c-0.5,3.5-0.6,6.8-0.1,10.6
		c2.5,17,5,34.1,7.5,51.2C145.8,868.2,145.9,869.9,146.7,870.2z M18.8,951.6c-0.4,1.4-0.7,1.9-0.8,2.6c-2.7,18.1-5.3,36.3-8,54.3
		c-0.6,4.2-0.2,7.7,0.3,11.3c2.3,15.8,4.6,31.7,6.9,47.5c0.3,1.9,0.4,5,1.2,5c0.8,0,0.9-3,1.2-4.9c2.3-15.6,4.5-31.2,6.8-46.7
		c0.8-5.6,0.9-10.5,0-16.2c-1.3-8.2-2.5-16.8-3.7-25.3C21.5,970.2,20.2,961.1,18.8,951.6z M126.8,198.1c3.1-21.2,5.8-40.1,8.6-58.9
		c0.3-2.4,0.5-4.9,0.1-7.4c-2.8-19.1-5.5-38.2-8.3-57.6c-0.4,1.2-0.7,1.5-0.8,2.2c-2.7,18.3-5.4,36.7-8.1,55
		c-0.4,2.4-0.5,4.8-0.1,7.4C120.9,157.9,123.7,177,126.8,198.1z M127.1,614c-0.4,1.3-0.7,1.7-0.8,2.4c-2.7,18.3-5.4,36.7-8.1,55.1
		c-0.3,2.1-0.5,4.3-0.2,6.6c2.8,19.3,5.6,38.7,8.7,60.1c3.1-21.6,5.9-41.1,8.7-60.8c0.2-1.3,0.2-3.6,0-4.9
		C132.8,653.1,130,633.8,127.1,614z M96.4,405.1c-0.2-1.9-0.3-3.5-0.5-5c-2.5-17.1-5-34.2-7.4-51.3c-0.7-5.2-1.3-4-1.9,0.3
		c-2.5,17.1-5,34.2-7.5,51.2c-0.6,4-0.4,7.6,0.1,11.4c2.4,16.3,4.8,32.6,7.2,48.9c0.3,1.7,0.4,4.4,1,4.5c0.8,0.1,0.9-3,1.2-4.9
		c2.4-16.3,4.8-32.6,7.1-48.9C95.9,409.4,96.1,407.2,96.4,405.1z M96.4,945.1c-0.2-2-0.3-3.7-0.5-5.2c-2.5-17.1-5-34.2-7.4-51.2
		c-0.8-5.5-1.3-3.4-1.9,0.6c-2.4,16.6-4.8,33.1-7.3,49.6c-0.7,4.8-0.6,9,0.1,13.8c2.3,15.7,4.6,31.6,6.9,47.3
		c0.3,1.9,0.4,5.1,1.1,5.2c0.8,0.1,0.9-3,1.2-5c2.4-16,4.7-32.1,7-48.1C95.9,949.7,96.1,947.3,96.4,945.1z M48.3,73.9
		c-0.5,1.7-0.7,2.4-0.9,3.3c-2.6,18.1-5.3,36.2-7.9,54.3c-0.5,3.2-0.3,6,0.1,9c2.5,16.8,4.9,33.7,7.3,50.5c0.8,5.6,1.4,4.4,2.1-0.2
		c2.4-16.6,4.8-33.2,7.2-49.8c0.5-3.2,0.8-6.5,0.3-9.9C53.9,112.3,51.1,93.5,48.3,73.9z M57,674.8c-0.3-2.6-0.5-5-0.9-7.3
		c-2.3-15.8-4.6-31.7-6.9-47.4c-0.3-1.7-0.6-4.4-1-4.6c-0.8-0.5-0.9,2.6-1.2,4.5c-2.4,16.3-4.7,32.7-7.2,49c-0.7,4.9-0.6,9,0.1,13.7
		c2.3,15.5,4.5,31.1,6.8,46.6c0.3,2.1,0.4,5.6,1.4,5.4c0.7-0.2,0.9-3.2,1.2-5.2c2.3-15.5,4.6-31.1,6.8-46.7
		C56.4,680.3,56.7,677.5,57,674.8z M8.8,465.4c0.2-1.1,0.5-2.4,0.8-3.9c2.5-17.3,5.1-34.7,7.6-52c0.5-3.4,0.4-6.4-0.1-9.7
		c-2.5-16.8-4.9-33.6-7.3-50.5c-0.7-5.2-1.3-4.9-2.1,0.2c-2.4,16.9-4.9,33.6-7.4,50.4c-0.5,3.5-0.6,6.9-0.1,10.6
		c2.5,17,5,34.1,7.5,51.2C7.9,463.1,8,465.1,8.8,465.4z M-0.1,944.1c-0.1,2.8,0.2,4.9,0.5,6.9c2.4,16.6,4.8,33.1,7.3,49.6
		c0.2,1.7,0.3,4.3,1,4.4c0.7,0.1,0.8-2.5,1.1-4.2c2.5-16.8,4.9-33.7,7.4-50.4c0.6-3.9,0.6-7.4,0-11.3c-2.4-16.2-4.8-32.6-7.1-48.9
		c-0.3-1.9-0.4-4.9-1.2-4.7c-0.7,0.1-0.8,2.8-1,4.5c-2.4,16.5-4.9,33.1-7.3,49.6C0.1,941.3,0,942.9-0.1,944.1z M108.1,68.1
		c0.2,1.8,0.3,3.2,0.4,4.4c2.5,17.4,5,34.8,7.6,52.1c0.9,6.4,1.4,1.8,1.9-1.3c2.4-16.6,4.8-33.2,7.3-49.8c0.7-4.6,0.5-8.6-0.1-13
		c-2.4-16-4.7-32.2-7-48.3c-0.3-1.7-0.4-4.4-1-4.4c-0.8,0-0.9,3.1-1.2,5c-2.4,16-4.7,32.1-7.1,48.3C108.5,63.5,108.3,66,108.1,68.1z
		 M125.9,607.9c-0.1-1.6-0.1-2.8-0.3-3.8c-2.6-17.9-5.1-35.9-7.8-53.7c-0.9-5.9-1.4-1.1-1.7,1.4c-2.5,16.8-4.9,33.7-7.4,50.5
		c-0.6,4.2-0.5,8,0.1,12.2c2.4,16,4.7,32.2,7.1,48.2c0.3,1.9,0.3,5,1.2,4.7c0.6-0.2,0.8-2.8,1-4.6c2.4-16.3,4.8-32.7,7.1-49.1
		C125.5,611.9,125.7,609.7,125.9,607.9z M38.3,950.2c-2.3,15.6-4,29.8-6.4,42.7c-2.6,13.9-2.7,25.9,0,39.9
		c2.4,12.8,4.1,27.2,6.3,42.5c2.3-15.4,4-29.6,6.3-42.6c2.5-13.8,2.8-25.8,0.1-39.9C42.2,980.2,40.5,965.8,38.3,950.2z M38.2,535.7
		c3.1-21.3,5.9-40.4,8.6-59.5c0.6-3.9,0-7.2-0.5-10.5c-2.3-15.5-4.5-31.1-6.8-46.6c-0.3-2.3-0.4-5.7-1.6-6.6
		c-2.8,19-5.5,38.1-8.3,57.2c-0.3,2.2-0.3,4.4,0,6.6C32.3,495.4,35.1,514.5,38.2,535.7z M77.6,940.4c2.3-16,4.2-30.7,6.6-44.2
		c2.4-13.2,2.4-24.4,0-37.6c-2.4-13.1-4.1-27.7-6.4-43.4c-2,14-3.5,27-5.7,38.1c-3.4,17.3-3.4,32.7,0,49.9
		C74.1,914.1,75.5,926.7,77.6,940.4z M77.6,680c-3.1,21.2-5.8,40.3-8.6,59.4c-0.5,3.2-0.2,6.1,0.2,9c2.5,16.8,4.9,33.7,7.4,50.5
		c0.2,1.5,0.5,3.6,0.9,3.8c0.7,0.5,0.8-2.3,1.1-4c2.5-17.1,5-34.1,7.5-51.2c0.4-2.6,0.6-5.3,0.2-8.2C83.5,720.3,80.7,701.2,77.6,680
		z M67.7,198.2c3.1-21.6,5.9-41.1,8.7-60.8c0.2-1.3,0.2-3.5,0-4.9c-2.8-19.4-5.6-38.6-8.6-59.9c-2.2,14.9-3.8,28.5-6,40.6
		c-2.9,15.4-3.1,29-0.1,44.5C64,169.6,65.6,183.3,67.7,198.2z M77.6,265.6c2.2-14.8,3.7-28.2,5.9-39.9c3.1-16,3.1-30.1,0-46
		c-2.3-11.7-3.8-25.1-5.9-39.5c-3.1,21.1-5.9,40.4-8.7,59.8c-0.4,2.6-0.2,5,0.1,7.4C71.8,225.9,74.5,244.5,77.6,265.6z M67.7,738
		c1.8-12.4,3-23.6,4.9-33c4-20,4.6-39.1,0.1-59c-1-4.4-1.5-10.1-2.3-15.2c-0.8-5.5-1.6-10.9-2.7-18.1c-3.1,21.3-5.9,40.7-8.7,60
		c-0.3,2.3-0.2,4.5,0.1,6.6C61.9,698.1,64.6,716.9,67.7,738z M77.6,400.6c3.1-21.4,5.9-40.8,8.7-60.1c0.5-3.6-0.1-6.7-0.5-9.7
		c-1.6-10.7-3.1-21.5-4.7-32.1c-1.1-7.2-1.9-14.9-3.6-22.5c-2.9,20.3-5.7,39.7-8.5,59c-0.4,2.6-0.2,5,0.2,7.4
		C71.8,361.2,74.5,379.8,77.6,400.6z M29.3,608.3c0.1,1.5,0.2,2.9,0.4,4.1c2.5,17.3,5.1,34.6,7.6,52c0.8,5.5,1.3,3.4,1.9-0.6
		c2.4-16.8,4.9-33.7,7.4-50.4c0.6-4.2,0.6-7.9,0-12.1c-2.4-16.2-4.8-32.6-7.1-48.9c-0.3-1.7-0.4-4.3-1-4.4c-0.7-0.1-0.8,2.5-1.1,4.2
		c-2.5,16.8-4.9,33.6-7.4,50.4C29.6,604.4,29.5,606.4,29.3,608.3z M117,410c-3.1,21.4-5.8,40.3-8.6,59.1c-0.5,3.5-0.2,6.6,0.3,9.8
		c2.4,16.4,4.8,32.7,7.1,49c0.3,1.7,0.4,4.2,1.1,4.4c0.7,0.2,0.9-2.3,1.1-4.1c2.4-16.6,4.8-33.2,7.3-49.8c0.4-2.9,0.8-5.9,0.3-9
		C122.9,450.4,120.1,431.3,117,410z M117,950c-3.1,21.4-5.8,40.3-8.6,59.1c-0.5,3.5-0.2,6.6,0.3,9.8c2.4,16.3,4.8,32.7,7.1,49
		c0.3,1.7,0.4,4.2,1.1,4.4c0.7,0.2,0.9-2.3,1.1-4.1c2.4-16.6,4.8-33.2,7.3-49.8c0.4-2.9,0.8-5.9,0.3-9
		C122.9,990.3,120.1,971.3,117,950z M47.2,67.6c-0.1-1.4-0.2-2.9-0.4-4.1c-2.5-17.6-5.1-35.2-7.7-52.8c-0.6-4-1.1-3.5-1.7,0.2
		c-2.6,17.6-5.1,35.2-7.7,52.7c-0.5,3.4-0.4,6.5,0.1,9.8c2.5,16.8,4.9,33.6,7.4,50.4c0.2,1.5,0.3,3.6,0.9,3.8c0.8,0.3,0.9-2.3,1.1-4
		c2.5-16.8,4.9-33.6,7.4-50.4C46.8,71.5,46.9,69.5,47.2,67.6z M116.1,405.2c-0.2-1.6-0.3-3-0.5-4.2c-2.5-17.3-5-34.7-7.5-52
		c-0.7-4.9-1.3-4-1.9,0.4c-2.5,17.1-5,34.2-7.5,51.2c-0.5,3.7-0.5,7,0.1,10.5c2.4,16.5,4.8,33.1,7.3,49.6c0.3,1.7,0.4,4.4,1,4.4
		c0.8,0.1,0.9-3,1.2-4.9c2.4-16.3,4.8-32.6,7.1-48.9C115.7,409.4,115.9,407.2,116.1,405.2z M8.7,477.5c-3.1,21.4-5.9,40.7-8.7,60
		c-0.5,3.6,0.1,6.7,0.5,9.7c1.6,11.2,3.2,22.5,4.9,33.6c1,6.7,1.7,14,3.4,20.9c2.9-20.3,5.7-39.6,8.5-58.9c0.3-2.3,0.2-4.5-0.1-6.6
		C14.5,517.4,11.8,498.6,8.7,477.5z M98.2,945.1c0.1,1.2,0.1,2.4,0.3,3.3c2.6,18.1,5.2,36.2,7.9,54.3c0.7,4.7,1.2,2.2,1.6-0.8
		c2.6-17.6,5.1-35.2,7.7-52.7c0.5-3.5,0.3-6.5-0.2-9.7c-2.4-16.5-4.8-33.1-7.2-49.7c-0.3-1.7-0.4-4.2-1.1-4.2c-0.7,0-0.8,2.6-1,4.3
		c-2.4,16.5-4.9,33.1-7.3,49.6C98.6,941.3,98.4,943.2,98.2,945.1z M57.9,400.6c3-21,5.7-39.6,8.5-58.2c0.5-3.7,0.4-7.1-0.1-10.6
		c-2.4-16.3-4.8-32.7-7.2-49c-0.3-1.7-0.4-4.2-1.1-4.3c-0.7-0.1-0.9,2.4-1.1,4.1c-2.5,16.8-4.9,33.7-7.4,50.6
		c-0.4,2.7-0.6,5.3-0.2,8.2C52,360.4,54.8,379.5,57.9,400.6z M57.9,940.6c3.1-21.1,5.8-40,8.5-58.8c0.5-3.5,0.3-6.6-0.2-9.8
		c-2.4-16.3-4.8-32.7-7.2-49c-0.3-1.7-0.4-4.3-1-4.5c-0.9-0.3-1,2.7-1.3,4.6c-2.4,16.3-4.8,32.7-7.2,49c-0.5,3.1-0.8,6.2-0.3,9.7
		C52.1,900.7,54.8,919.5,57.9,940.6z M146.8,74.2c-0.4,1.3-0.7,1.7-0.8,2.4c-2.7,18.1-5.3,36.2-8,54.3c-0.6,3.8-0.3,7.1,0.2,10.6
		c2.4,16.3,4.8,32.7,7.1,49c0.3,1.7,0.4,4.2,1.1,4.3c0.7,0.2,0.9-2.4,1.1-4.1c2.4-16.6,4.8-33.2,7.3-49.8c0.4-2.9,0.7-6,0.3-9
		C152.4,112.8,149.6,93.7,146.8,74.2z M27.4,68.2c-0.1-1.8-0.2-3.5-0.4-5c-2.5-17.4-5-34.8-7.5-52.2c-0.7-5-1.3-3.2-1.8,0.5
		c-2.5,17.4-5,34.7-7.6,52.1c-0.5,3.4-0.4,6.5,0.1,9.8c2.5,16.8,4.9,33.7,7.4,50.5c0.2,1.5,0.4,3.6,0.9,3.7c0.7,0.2,0.8-2.4,1.1-4.1
		c2.4-16.6,4.8-33.2,7.3-49.8C27,72,27.2,70.1,27.4,68.2z M48.1,747.4c-3.1,21.5-5.9,40.4-8.6,59.2c-0.5,3.2-0.3,6,0.2,9
		c2.5,16.8,4.9,33.7,7.4,50.5c0.2,1.5,0.4,3.5,0.9,3.7c0.7,0.3,0.9-2.3,1.1-3.9c2.4-16.6,4.8-33.2,7.2-49.8c0.4-2.9,0.8-6,0.4-9
		C53.9,787.9,51.2,768.8,48.1,747.4z M27.4,607.7c-0.2-1.8-0.2-3.2-0.4-4.5c-2.5-17.4-5-34.8-7.5-52.1c-0.7-4.8-1.2-3.4-1.8,0.4
		c-2.5,17.1-5,34.2-7.5,51.3c-0.5,3.6-0.6,6.9,0,10.6c2.5,16.8,4.9,33.7,7.4,50.5c0.2,1.5,0.4,3.6,0.9,3.8c0.8,0.3,0.9-2.3,1.1-4
		c2.4-16.6,4.9-33.2,7.3-49.8C27,611.8,27.2,609.5,27.4,607.7z M57,269.9c-0.3-2.6-0.5-5-0.9-7.3c-2.3-15.8-4.6-31.7-6.9-47.5
		c-0.3-1.7-0.6-4.3-1-4.5c-0.8-0.6-0.9,2.7-1.2,4.6c-2.4,16.3-4.8,32.7-7.2,48.9c-0.7,4.5-0.7,8.3,0,12.9c2.4,16,4.7,32.1,7.1,48.2
		c0.3,1.9,0.4,4.9,1.2,4.7c0.6-0.2,0.8-2.8,1-4.5c2.4-16.1,4.7-32.1,7-48.3C56.5,274.9,56.7,272.4,57,269.9z M146.6,612.5
		c-3.1,21.3-5.9,40.4-8.6,59.5c-0.5,3.2-0.2,6.1,0.3,9c2.4,16.6,4.8,33.2,7.2,49.8c0.7,4.7,1.3,5.8,2.1,0.3
		c2.4-16.9,4.9-33.7,7.3-50.6c0.5-3.2,0.6-6.5,0.1-9.9C152.3,652,149.6,633.4,146.6,612.5z M97.3,815.1c-2.1,14.4-3.6,27.6-5.8,39
		c-3.3,16.4-3.2,31.1,0,47.5c2.2,11.5,3.7,24.6,5.8,38.9c3.1-21.3,5.9-40.6,8.7-59.9c0.4-2.6,0.2-5.1-0.1-7.4
		C103.1,854.6,100.4,836,97.3,815.1z M97.2,667.8c0.7-0.4,0.8-2.6,1.1-4.3c2.4-16.5,4.8-33.2,7.3-49.6c0.7-4.6,0.6-8.4-0.1-12.9
		c-2.4-16-4.7-32.1-7-48.1c-0.3-1.9-0.4-4.9-1.2-4.8c-0.6,0.1-0.8,2.8-1,4.5c-2.4,16.5-4.8,33.1-7.3,49.7c-0.5,3.5-0.7,6.8-0.2,10.6
		c2.5,17,5,34.1,7.5,51.2C96.5,665.4,96.6,667.3,97.2,667.8z M57.9,127.7c0.6-0.7,0.8-2.8,1-4.5c2.4-16.3,4.7-32.7,7.2-49
		c0.7-4.5,0.7-8.4,0-12.9c-2.4-16-4.7-32.2-7.1-48.2c-0.3-1.9-0.4-5-1.2-4.9c-0.7,0.1-0.8,2.7-1,4.4c-2.4,16.6-4.9,33.2-7.3,49.7
		c-0.5,3.5-0.7,6.8-0.1,10.6c2.5,17,5,34.2,7.5,51.3C57.1,125.6,57.3,127.4,57.9,127.7z M58.1,667.6c0.3-1.6,0.7-3.4,1-5.4
		c2.3-15.8,4.6-31.7,7-47.5c0.8-5.1,0.8-9.4,0-14.5c-2.4-15.7-4.6-31.6-7-47.4c-0.3-1.9-0.4-5-1.2-4.8c-0.6,0.2-0.8,2.8-1,4.5
		c-2.4,16.6-4.9,33.2-7.3,49.8c-0.5,3.2-0.7,6.3-0.2,9.8c2.6,17.3,5.1,34.7,7.6,52.1C57.2,665.7,57.3,667.5,58.1,667.6z M38.2,140
		c-3.1,21-5.8,39.8-8.5,58.6c-0.5,3.3-0.3,6.6,0.1,9.8c2.5,16.8,4.9,33.6,7.4,50.4c0.2,1.5,0.5,3.6,0.9,3.8c0.7,0.5,0.8-2.4,1.1-4
		c2.5-16.8,4.9-33.6,7.4-50.5c0.4-2.8,0.8-5.7,0.3-8.9C44.1,180.2,41.3,161.1,38.2,140z M136.4,398.5c0.4-0.7,0.6-0.9,0.7-1.2
		c2.7-18.5,5.5-37.1,8.2-55.7c0.3-2.1,0.5-4.3,0.2-6.6c-2.8-19.3-5.6-38.6-8.7-59.9c-2.2,15-3.8,28.8-6.1,41.1
		c-2.8,14.8-3,27.9-0.1,43C132.9,371.4,134.5,385.3,136.4,398.5z M38.2,680c-3.1,21.1-5.8,40.2-8.6,59.3c-0.4,3.1-0.2,6.1,0.2,9
		c2.5,16.8,4.9,33.7,7.4,50.4c0.2,1.6,0.3,4.5,1.1,3.9c0.4-0.3,0.7-2.4,0.9-3.8c2.5-17.1,5-34.1,7.5-51.2c0.4-2.9,0.6-5.8,0.1-9
		C44,719.8,41.3,700.9,38.2,680z M136.4,938.8c0.5-1.1,0.6-1.3,0.7-1.7c1.9-12.7,3.4-26.1,5.7-37.9c2.8-14.9,2.8-28,0-42.9
		c-2.3-12.3-3.9-26-6.1-41.1c-3.1,21.3-5.9,40.6-8.7,59.9c-0.4,2.6-0.2,5,0.2,7.4C130.9,900.9,133.6,919.5,136.4,938.8z M88.4,68
		c0.1,1.5,0.2,2.9,0.4,4.2c2.6,17.6,5.1,35.2,7.7,52.7c1,6.8,1.5,1.2,1.9-1.4c2.4-16.5,4.8-33.2,7.3-49.6c0.7-4.6,0.6-8.4-0.1-12.9
		c-2.4-16-4.7-32.1-7-48.1c-0.3-1.9-0.4-4.9-1.2-4.7c-0.6,0.2-0.8,2.9-1,4.6c-2.4,16.5-4.8,33.1-7.2,49.7
		C88.7,64.2,88.6,66.1,88.4,68z M97.3,275.1c-3.1,21.3-5.9,40.4-8.7,59.4c-0.6,3.9,0,7.2,0.5,10.5c2.1,14.3,4.2,28.5,6.3,42.8
		c0.5,3.6,0.9,7.7,2.1,11.3c2.9-19.9,5.6-39,8.4-58.1c0.4-2.5,0.3-5,0-7.4C103.1,314.8,100.4,296,97.3,275.1z M37.3,944.9
		c-0.2-1.8-0.3-3.5-0.5-5c-2.4-16.9-4.9-33.7-7.4-50.6c-0.8-5.6-1.4-4.4-2.1,0.4c-2.4,16.9-4.9,33.7-7.4,50.5
		c-0.5,3.6-0.5,6.9,0,10.6c2.5,16.8,4.9,33.7,7.4,50.5c0.2,1.5,0.3,3.7,0.9,3.8c0.7,0.2,0.8-2.4,1.1-4.1c2.5-16.8,4.9-33.7,7.4-50.6
		C37,948.7,37.1,946.8,37.3,944.9z M127,330.1c0.2-1.1,0.6-2.3,0.8-3.7c2.5-17.1,5-34.3,7.5-51.3c0.5-3.7,0.4-7-0.1-10.5
		c-2.4-16.6-4.8-33.2-7.3-49.8c-0.2-1.7-0.4-4.3-1.1-4.3c-0.7,0.1-0.8,2.7-1,4.4c-2.4,16.6-4.8,33.2-7.3,49.8
		c-0.5,3.5-0.7,6.8-0.2,10.5c2.5,17.1,5,34.2,7.5,51.3C126.1,327.9,126.2,329.7,127,330.1z M126.8,870c0.7-0.2,0.8-2.4,1.1-4.1
		c2.5-16.8,4.9-33.7,7.4-50.6c0.5-3.6,0.5-6.9,0-10.5c-2.5-16.8-4.9-33.7-7.4-50.5c-0.2-1.4-0.5-3.5-0.9-3.7c-0.7-0.5-0.8,2.3-1.1,4
		c-2.5,16.8-4.9,33.7-7.4,50.5c-0.5,3.6-0.6,6.8,0,10.5c2.5,16.8,4.9,33.7,7.4,50.5C126,867.5,126.2,869.3,126.8,870z M87.4,603.1
		c3.1-21.3,5.9-40.4,8.6-59.6c0.5-3.2,0.2-6.1-0.3-9c-2.4-16.6-4.9-33.2-7.3-49.8c-0.7-4.9-1.3-5.7-2.1-0.2
		c-2.4,16.9-4.9,33.7-7.4,50.6c-0.5,3.3-0.6,6.5-0.1,9.8C81.7,563.5,84.4,582.1,87.4,603.1z M37.3,405c-0.2-1.8-0.3-3.5-0.5-5
		c-2.4-16.9-4.9-33.7-7.4-50.6c-0.8-5.5-1.4-4.5-2.1,0.3c-2.4,16.9-4.9,33.7-7.4,50.5c-0.5,3.6-0.5,6.9,0,10.5
		c2.5,16.8,4.9,33.7,7.4,50.5c0.2,1.5,0.3,3.7,0.9,3.8c0.7,0.2,0.8-2.4,1.1-4.1c2.5-16.8,4.9-33.7,7.4-50.6
		C37,408.8,37.1,406.8,37.3,405z M77.8,411.3c-0.5,2.3-0.8,3.3-1,4.4c-2.5,17.3-5,34.7-7.6,52c-0.7,4.4-0.4,8.1,0.2,12.1
		c2.3,15.8,4.6,31.6,6.9,47.4c0.3,1.9,0.4,5,1.2,5c0.8,0,0.9-3,1.2-4.9c2.3-15.8,4.6-31.7,7-47.4c0.8-5.4,0.8-10-0.1-15.2
		c-1.3-8.2-2.5-16.8-3.7-25.2C80.6,430.4,79.3,421.3,77.8,411.3z M77.6,949.9c-3.1,21.7-5.9,40.8-8.7,59.9c-0.5,3.3-0.1,6.1,0.3,8.9
		c2.4,16.3,4.8,32.7,7.1,49c0.3,1.7,0.4,4.3,1,4.4c0.8,0.2,1-2.8,1.3-4.7c2.4-16.3,4.8-32.7,7.1-49c0.4-2.8,0.9-5.8,0.4-8.9
		C83.5,990.4,80.7,971.4,77.6,949.9z M116.8,264.1c0.5-1.8,0.7-2.5,0.9-3.4c2.6-17.6,5.1-35.2,7.7-52.8c0.5-3.6,0.5-7,0-10.6
		c-2.5-16.8-4.9-33.7-7.4-50.5c-0.7-4.5-1.2-5.1-1.9-0.1c-1.7,12-3.2,24.6-5.3,35.8c-2.6,14.1-2.7,26.5,0,40.8
		C113.1,235.8,114.7,249.9,116.8,264.1z M117,805.5c3.1-21.3,5.9-40.4,8.6-59.5c0.5-3.5,0.1-6.7-0.4-9.8c-2.3-16.1-4.7-32.2-7-48.2
		c-0.3-1.9-0.4-4.9-1.2-4.8c-0.7,0.1-0.8,2.7-1,4.5c-2.4,16.3-4.8,32.6-7.2,48.9c-0.5,3.4-0.8,6.9-0.3,10.6
		C111.2,765.8,113.9,784.4,117,805.5z M145.6,607.9c-0.2-1.7-0.3-3.4-0.5-4.9c-2.5-17.1-5-34.3-7.4-51.4c-0.7-4.6-1.2-4.8-1.9,0
		c-2.5,17.1-5,34.2-7.5,51.3c-0.5,3.6-0.5,6.9,0,10.6c2.5,16.5,4.8,33.2,7.3,49.7c0.3,1.7,0.4,4.3,1.1,4.3c0.7,0,0.8-2.6,1.1-4.3
		c2.4-16.6,4.8-33.2,7.3-49.8C145.2,611.7,145.4,609.8,145.6,607.9z M38.2,815.1c-2,13.6-3.3,26.1-5.5,36.7
		c-3.7,18.3-3.5,34.9,0.1,52.9c2.1,10.4,3.4,22.5,5.3,35.8c3.1-21.3,5.9-40.6,8.7-59.9c0.4-2.6,0.2-5-0.2-7.4
		C44,854.6,41.3,836,38.2,815.1z M127.7,68.6c0.3,2.1,0.5,4.3,0.8,6.3c2.3,15.8,4.6,31.7,6.9,47.5c0.3,2,0.4,5,1.1,5.1
		c0.8,0.1,0.9-3,1.2-4.9c2.4-16,4.7-32.2,7.1-48.2c0.7-4.5,0.8-8.3,0.1-12.9c-2.4-16.3-4.8-32.7-7.1-49c-0.3-1.7-0.4-4.3-1.1-4.4
		c-0.7-0.1-0.8,2.6-1.1,4.3c-2.5,16.8-4.9,33.6-7.4,50.5C128,64.6,127.9,66.6,127.7,68.6z M8.7,612.7c-2,13.5-3.3,25.7-5.4,36.1
		c-3.7,18.4-3.7,35.3,0,53.7c2.1,10.3,3.4,22.5,5.3,35.6c3.1-21.3,5.9-40.6,8.7-59.9c0.3-2.3,0.2-4.5-0.1-6.6
		C14.5,652.7,11.8,633.9,8.7,612.7z M8.6,198.1c1.7-11.9,3.2-21.7,4.6-31.6c1.5-10.2,3.8-20.3,4-30.9c0.3-11.1-2.6-21-4-31.6
		c-1.4-9.9-2.9-19.6-4.6-31.2C5.6,94.1,2.8,113.4,0,132.7c-0.3,2.3-0.2,4.4,0.1,6.6C2.8,158.1,5.6,176.9,8.6,198.1z M38.2,275.1
		c-2,13.4-3.2,25.7-5.4,36C29,329.9,29.3,347,33,365.5c2,10.1,3.3,22,5.2,35c3.1-21.3,5.9-40.7,8.7-60c0.4-2.6,0.1-5-0.2-7.4
		C44,314.6,41.3,296,38.2,275.1z M126.9,1005.3c0.6-0.5,0.7-2.3,0.9-3.8c2.5-17.1,5-34.2,7.5-51.3c0.5-3.7,0.4-7-0.1-10.6
		c-2.4-16.6-4.8-33.2-7.3-49.8c-0.2-1.7-0.4-4.3-1.1-4.2c-0.7,0.1-0.8,2.7-1,4.4c-2.4,16.6-4.8,33.2-7.3,49.8
		c-0.5,3.6-0.7,6.8-0.1,10.6c2.5,17.1,5,34.2,7.5,51.3C126.1,1003.1,126.2,1005,126.9,1005.3z M127,465.4c0.2-1.1,0.5-2.4,0.7-3.9
		c2.5-17.1,5-34.2,7.5-51.3c0.5-3.7,0.5-7-0.1-10.6c-2.4-16.6-4.8-33.2-7.3-49.8c-0.2-1.7-0.4-4.3-1.1-4.2c-0.7,0.1-0.8,2.7-1,4.4
		c-2.4,16.6-4.8,33.2-7.3,49.8c-0.5,3.6-0.7,6.8-0.1,10.6c2.5,17.1,5,34.2,7.5,51.3C126.1,463.1,126.2,465,127,465.4z M68.7,68.3
		c0.2,1.7,0.3,3.3,0.6,4.9c2.4,16.9,4.9,33.7,7.4,50.5c0.2,1.4,0.5,3.5,0.9,3.7c0.7,0.5,0.9-2.2,1.1-3.9c2.5-16.8,4.9-33.7,7.4-50.5
		c0.5-3.6,0.5-6.9,0-10.6c-2.5-16.8-4.9-33.7-7.4-50.5c-0.2-1.5-0.6-3.5-0.9-3.7c-0.7-0.5-0.8,2.3-1.1,3.9
		c-2.5,16.8-4.9,33.7-7.4,50.5C69,64.4,68.9,66.4,68.7,68.3z M68.7,608c0.2,1.5,0.3,2.9,0.4,4.2c2.5,17.4,5,34.8,7.6,52.1
		c0.2,1.4,0.4,3.6,1,3.2c0.6-0.4,0.8-2.9,1-4.6c2.4-16.3,4.7-32.7,7.2-49c0.7-4.6,0.6-8.5-0.1-12.9c-2.4-16-4.7-32.2-7.1-48.2
		c-0.3-1.9-0.4-5-1.2-4.7c-0.6,0.2-0.7,2.8-1,4.6c-2.4,16.3-4.8,32.6-7.2,49C69.1,603.7,68.9,605.9,68.7,608z M108.1,877.7
		c0.2,2.1,0.3,3.8,0.5,5.3c2.4,16.9,4.9,33.8,7.4,50.6c0.9,5.9,1.5,3.7,2.1-0.6c2.3-16.1,4.7-32.2,7.1-48.3c0.7-4.7,0.8-9,0.1-13.8
		c-2.4-15.8-4.6-31.7-7-47.5c-0.3-1.9-0.4-4.9-1.2-5c-0.8-0.1-0.9,2.9-1.2,4.9c-2.3,15.8-4.6,31.7-6.9,47.5
		C108.6,873.1,108.3,875.6,108.1,877.7z M125.9,338.1c-0.2-1.8-0.2-3.5-0.4-5c-2.5-17.1-5-34.2-7.5-51.4c-0.8-5.3-1.4-3.6-2,0.4
		c-2.4,16.6-4.8,33.3-7.3,49.8c-0.6,4.2-0.6,8,0,12.2c2.4,16.1,4.7,32.2,7.1,48.3c0.3,1.9,0.4,4.9,1.3,4.7c0.7-0.3,0.9-3.2,1.2-5.1
		c2.3-15.8,4.6-31.7,6.9-47.5C125.4,342.4,125.6,340.2,125.9,338.1z M56.9,405.6c-0.2-2.1-0.3-3.8-0.5-5.3
		c-2.5-17.1-5-34.2-7.4-51.3c-0.8-5.4-1.3-3.4-1.9,0.6c-2.4,16.9-4.9,33.7-7.4,50.5c-0.6,3.9-0.5,7.5,0,11.4
		c2.5,16.5,4.9,33.1,7.3,49.7c0.2,1.7,0.4,4.4,1.1,4.1c0.7-0.2,0.8-2.8,1-4.6c2.4-16,4.7-32.1,7-48.2
		C56.5,410.2,56.7,407.7,56.9,405.6z M56.9,945.5c-0.2-2.1-0.3-3.8-0.5-5.3C54,923,51.5,905.9,49,888.8c-0.8-5.6-1.4-3.1-1.9,0.7
		c-2.4,16.8-4.9,33.7-7.4,50.5c-0.6,4-0.5,7.5,0.1,11.4c2.4,16.3,4.8,32.6,7.2,48.9c0.3,1.9,0.4,5,1.2,4.8c0.6-0.1,0.7-2.9,1-4.6
		c2.4-16,4.7-32.1,7-48.2C56.5,950.1,56.7,947.6,56.9,945.5z M18.8,276.7c-0.4,1.3-0.7,1.7-0.8,2.4c-2.7,18.3-5.4,36.7-8,55
		c-0.6,3.9-0.1,7.2,0.4,10.5c2.3,15.8,4.6,31.6,6.9,47.4c0.3,1.9,0.4,4.9,1.2,5c0.8,0.2,1-2.8,1.2-4.7c2.4-16,4.7-32.1,7-48.2
		c0.5-3.1,0.9-6.4,0.4-9.8C24.4,315.2,21.6,296.2,18.8,276.7z M67.8,477.5c-3.1,21.2-5.9,40.3-8.6,59.3c-0.5,3.2-0.2,6.1,0.2,9
		c2.5,16.8,4.9,33.6,7.4,50.4c0.2,1.6,0.3,4.5,1.1,3.9c0.4-0.3,0.6-2.4,0.9-3.9c2.5-17,5-34.1,7.5-51.2c0.4-2.9,0.6-5.9,0.1-9
		C73.5,517.3,70.8,498.5,67.8,477.5z M18.5,815.1c-3.1,21.5-5.9,41.1-8.7,60.7c-0.4,2.5,0,5.1,0.3,7.4c2.4,16.6,4.8,33.2,7.2,49.7
		c0.3,1.7,0.4,4.2,1.1,4.2c0.7,0,0.9-2.4,1.1-4.1c1.6-10.7,2.8-22.2,4.8-32c3.2-16.2,3.1-30.8,0-47
		C22.1,842.5,20.6,829.4,18.5,815.1z M78.6,135.4c0.1,1.6,0.2,3.1,0.4,4.3c2.5,17.4,5,34.8,7.6,52.2c0.9,5.8,1.5,2.4,2-1
		c2.4-16.6,4.8-33.2,7.3-49.8c0.6-3.9,0.6-7.5,0-11.4c-2.4-16.3-4.8-32.7-7.2-49c-0.3-1.7-0.4-4.3-1.1-4.4c-0.8-0.2-1,2.7-1.3,4.7
		c-2.4,16.1-4.7,32.2-7,48.3C79,131.1,78.8,133.3,78.6,135.4z M78.6,675.3c0.1,1.7,0.2,2.8,0.3,3.8c2.6,17.7,5.1,35.4,7.7,52.9
		c1,6.3,1.5,1.1,1.9-1.7c2.4-16.3,4.8-32.7,7.2-49c0.6-4.2,0.7-8,0-12.2c-2.4-16-4.7-32.2-7.1-48.2c-0.3-1.9-0.4-5-1.2-4.8
		c-0.8,0.1-0.9,3-1.2,5c-2.3,15.8-4.6,31.7-6.9,47.5C79,670.9,78.8,673.4,78.6,675.3z M78.6,270.5c0.2,2,0.3,4,0.6,5.7
		c2.4,16.6,4.8,33.2,7.2,49.8c0.2,1.7,0.4,4.3,1.1,3.9c0.6-0.4,0.8-2.8,1-4.6c2.3-16.1,4.6-32.2,7.1-48.1c0.8-5.1,0.7-9.4-0.1-14.5
		c-2.4-15.7-4.6-31.6-6.9-47.4c-0.3-1.9-0.4-5.2-1.2-4.7c-0.4,0.2-0.7,2.8-1,4.5c-2.4,16.3-4.8,32.6-7.1,49
		C79,266.1,78.8,268.3,78.6,270.5z M78.6,810.2c0.2,1.9,0.3,3.6,0.5,5.1c2.5,17.1,5,34.2,7.4,51.3c0.8,5.3,1.3,3.8,1.9-0.4
		c2.4-16.9,4.9-33.7,7.4-50.5c0.6-4.3,0.5-8-0.1-12.1c-2.4-16-4.7-32.1-7.1-48.2c-0.3-1.9-0.4-5.1-1.2-4.9c-0.7,0.2-0.8,3.3-1.1,5.2
		c-2.3,15.8-4.6,31.6-6.9,47.4C79.1,805.4,78.8,807.9,78.6,810.2z M146.5,1008.1c3.1-21.4,5.9-40.2,8.6-59.1
		c0.5-3.7,0.1-7.2-0.4-10.6c-2.3-16.1-4.7-32.2-7-48.2c-0.3-1.7-0.4-4.2-1.1-4.5c-0.7-0.2-0.8,2.4-1.1,4.1
		c-2.5,16.8-4.9,33.7-7.4,50.5c-0.4,2.6-0.7,5.4-0.3,8.2C140.7,967.6,143.4,986.7,146.5,1008.1z M28.2,748.7
		c-3,20.4-5.7,39.7-8.5,59.1c-0.4,2.9-0.1,5.5,0.3,8.1c2.4,16.6,4.8,33.2,7.3,49.7c0.2,1.7,0.4,4.2,1.1,4.2c0.7,0,0.8-2.6,1.1-4.3
		c2.4-16.6,4.8-33.2,7.3-49.7c0.6-4.3,0.5-8-0.1-12.1c-1.6-10.4-3-21-4.6-31.3C30.9,764.9,30,756.8,28.2,748.7z M106.8,869.9
		c0.9-0.1,1-2.3,1.3-4c2.5-16.8,4.9-33.7,7.4-50.5c0.5-3.6,0.6-6.9,0-10.5c-2.5-16.8-4.9-33.7-7.4-50.5c-0.2-1.5-0.5-3.5-0.9-3.8
		c-0.7-0.6-0.8,2.2-1.1,3.9c-2.5,16.8-4.9,33.7-7.4,50.5c-0.6,3.9-0.6,7.4,0,11.4c2.5,16.5,4.8,33.2,7.3,49.7
		C106.3,867.4,106.6,868.7,106.8,869.9z M28.2,208.7c-3,20.7-5.8,40.3-8.6,59.9c-0.4,2.6,0.1,5,0.4,7.3c2.4,16.6,4.8,33.2,7.2,49.8
		c0.2,1.7,0.4,4.2,1.1,4.2c0.7,0,0.8-2.6,1.1-4.3c2.4-16.6,4.8-33.2,7.3-49.7c0.6-4.3,0.5-8-0.1-12.1c-1.6-10.4-3-21-4.6-31.3
		C30.9,224.9,30,216.9,28.2,208.7z M107.1,330c0.7-0.3,0.9-2.5,1.1-4.2c2.5-16.8,4.9-33.7,7.4-50.5c0.6-4.1,0.4-7.5-0.1-11.3
		c-2.4-16.3-4.8-32.7-7.1-49c-0.3-1.7-0.4-4.3-1-4.5c-0.7-0.2-0.8,2.5-1.1,4.2c-2.5,16.8-4.9,33.7-7.4,50.5c-0.5,3.5-0.6,6.9,0,10.6
		c2.5,16.8,4.9,33.7,7.4,50.5C106.3,327.7,106.5,329.4,107.1,330z M146.3,466.3c0.4-1.3,0.7-1.8,0.8-2.4c2.6-17.8,5.2-35.7,7.8-53.5
		c0.6-4,0.4-7.7-0.1-11.4c-2.4-16.3-4.7-32.7-7.1-49c-0.2-1.7-0.4-4.3-1.1-4.2c-0.7,0.1-0.8,2.7-1,4.4c-2.4,16.6-4.8,33.2-7.3,49.7
		c-0.6,4.3-0.5,8.1,0.1,12.2c1.3,8.9,2.6,17.9,3.9,26.8C143.5,447.9,144.9,456.9,146.3,466.3z M107.1,738
		c3.1-21.3,5.9-40.4,8.6-59.5c0.4-2.9,0.2-5.5-0.1-8.2c-2.5-17.1-5-34.2-7.5-51.3c-0.7-4.6-1.2-5.2-1.9-0.2
		c-2.5,17.4-5,34.8-7.6,52.1c-0.4,3.1-0.5,5.9,0,9C101.4,698.5,104.1,717.1,107.1,738z M126.8,603c3.1-21,5.8-39.6,8.5-58.2
		c0.5-3.7,0.3-7.1-0.2-10.6c-2.4-16.3-4.8-32.6-7.1-48.9c-0.3-1.7-0.4-4.1-1.1-4.3c-0.7-0.2-0.9,2.4-1.1,4.1
		c-2.5,16.8-4.9,33.6-7.4,50.5c-0.4,2.6-0.7,5.3-0.3,8.2C120.9,562.8,123.7,581.8,126.8,603z M107.5,74.7c-1,1.5-1.1,3.9-1.4,5.9
		c-2.5,17.4-5,34.8-7.5,52.2c-0.6,3.9,0.2,7.2,0.6,10.5c2.1,14.6,4.2,29.1,6.4,43.6c0.5,3.1,0.7,6.8,1.8,9.4c1.7-11.5,3-23.1,5-33.1
		c3.8-19.1,4-36.9,0-56.1C110.3,97.3,109.1,85.6,107.5,74.7z M28.3,198c2.2-15.3,3.9-29.3,6.2-41.9c2.7-14.4,2.8-27,0.1-41.5
		c-2.3-12.6-4-26.6-6.2-41.9c-3.1,21.5-6,41-8.7,60.6c-0.2,1.3-0.2,3.6,0,4.9C22.4,157.5,25.2,176.8,28.3,198z M28.3,738.1
		c3.1-21.3,5.8-40.3,8.6-59.4c0.6-3.9,0.1-7.2-0.4-10.5c-1.7-11.5-3.3-22.9-5-34.4c-0.9-6.5-1.9-12.9-3.1-20.9
		c-3.1,21.1-5.9,40.5-8.7,59.8c-0.3,2.2-0.2,4.4,0.1,6.6C22.5,698.1,25.3,716.9,28.3,738.1z M8.7,207.7C5.6,229.3,2.8,248.6,0,268
		c-0.4,2.9,0,5.5,0.3,8.1c2.4,16.6,4.8,33.2,7.3,49.8c0.2,1.7,0.4,4.3,1.1,4.2c0.7-0.1,0.8-2.6,1.1-4.3c1.7-11.7,3.1-24.1,5.2-35
		c2.8-14.5,2.6-27.2-0.1-41.5C12.6,236.8,10.9,223,8.7,207.7z M146.6,477.5c-3.1,21.2-5.9,40.4-8.7,59.8c-0.5,3.5,0,6.7,0.4,9.8
		c2.3,15.8,4.6,31.7,6.9,47.4c0.3,1.9,0.4,4.8,1.2,4.9c0.8,0.1,1-2.9,1.2-4.8c2.4-16,4.7-32.1,7-48.2c0.5-3.1,0.8-6.4,0.3-9.8
		C152.4,517.5,149.6,498.4,146.6,477.5z M67.5,466.3c0.4-1.3,0.7-1.7,0.8-2.4c2.7-18.1,5.3-36.2,8-54.3c0.6-3.8,0.3-7.1-0.2-10.6
		c-2.4-16.3-4.8-32.7-7.2-49c-0.3-1.7-0.4-4.3-1.1-4.3c-0.7-0.1-0.8,2.6-1.1,4.2c-1.8,12-3.2,24.7-5.3,35.8c-2.7,14-2.5,26.1,0,40
		C63.8,438.4,65.5,452.4,67.5,466.3z M8.9,870c0.2-0.8,0.5-1.9,0.6-3.1c2.5-17.3,5.1-34.7,7.6-52c0.5-3.4,0.4-6.5-0.1-9.8
		c-2.5-16.8-4.9-33.7-7.4-50.5c-0.2-1.5-0.5-3.5-0.9-3.8c-0.7-0.6-0.9,2.2-1.1,3.8c-2.5,17.1-5,34.2-7.5,51.3c-0.4,3-0.6,5.8-0.1,9
		c2.5,17.3,5.1,34.7,7.6,52.1C7.9,868.3,8.1,870.2,8.9,870z M58.8,945.7c0.2,1.9,0.4,3.9,0.6,5.6c2.4,16.6,4.8,33.2,7.3,49.8
		c0.2,1.6,0.3,4.3,1.1,4.1c0.6-0.2,0.7-2.4,0.9-3.8c2.5-16.8,4.9-33.7,7.4-50.5c0.6-4.3,0.5-8-0.1-12.1c-2.4-16-4.7-32.2-7.1-48.2
		c-0.3-1.9-0.4-4.9-1.2-4.8c-0.7,0.1-0.8,2.8-1,4.5c-2.4,16.6-4.9,33.2-7.3,49.8C59.2,941.7,59,943.7,58.8,945.7z M48,603.1
		c3-21,5.8-39.9,8.5-58.8c0.3-2.4,0.4-5.1,0.1-7.5c-2.7-19.1-5.5-38.2-8.5-59.3c-3.1,21.6-6,41.2-8.8,60.8c-0.3,2.2-0.1,4.5,0.2,6.6
		C42.3,563.5,45,582.1,48,603.1z M136.5,1074.4c0.4-1.8,0.7-2.6,0.8-3.5c2.6-17.9,5.2-35.8,7.8-53.6c0.5-3.4,0.5-6.4,0-9.8
		c-2.5-16.8-4.9-33.7-7.4-50.5c-0.2-1.6-0.3-4.5-1.1-4c-0.4,0.2-0.7,2.3-0.9,3.8c-2.5,17.1-5,34.2-7.5,51.3
		c-0.3,2.3-0.7,4.7-0.3,7.4C130.8,1034.9,133.6,1054.2,136.5,1074.4z M136.7,410.2c-3.1,21.5-5.9,40.8-8.7,60.2
		c-0.5,3.6,0.1,6.6,0.6,9.7c2.3,15.6,4.5,31.2,6.8,46.7c0.3,2.3,0.4,5.6,1.6,6.6c2.8-19.1,5.5-38.3,8.3-57.4c0.5-3.6,0-6.6-0.4-9.7
		c-1.5-10.2-3-20.4-4.5-30.6C139.3,427.8,138.1,420,136.7,410.2z M97.3,265.6c3.1-21.3,5.8-40.2,8.6-59c0.5-3.5,0.2-6.6-0.3-9.8
		c-2.4-16.3-4.8-32.7-7.1-49c-0.3-1.7-0.4-4.2-1.1-4.4c-0.7-0.2-0.8,2.4-1.1,4.1c-2.5,16.8-4.9,33.7-7.4,50.5
		c-0.4,2.6-0.7,5.4-0.3,8.2C91.4,225.2,94.2,244.3,97.3,265.6z M88.4,743.2c0.2,2,0.3,3.6,0.6,5.1c2.4,16.9,4.9,33.7,7.4,50.5
		c0.2,1.5,0.5,3.6,0.9,3.8c0.7,0.5,0.8-2.3,1.1-3.9c2.5-16.8,4.9-33.7,7.4-50.4c0.6-3.9,0.5-7.5,0-11.4c-2.4-16.3-4.8-32.6-7.2-49
		c-0.3-1.7-0.4-4.3-1-4.5c-0.9-0.3-1,2.8-1.2,4.7c-2.4,16.3-4.8,32.6-7.1,49C88.8,739,88.6,741.2,88.4,743.2z M57.9,950.1
		c-3.1,21.4-5.9,40.7-8.7,60.1c-0.3,2.2-0.2,4.4,0.1,6.6c2.5,17.3,5.1,34.7,7.6,52.1c0.7,4.8,1.3,4.4,2-0.2
		c2.5-17.1,5-34.2,7.5-51.3c0.4-3,0.5-5.9,0.1-9C63.7,989.8,61,971.2,57.9,950.1z M57.9,410.2c-3.1,21.3-5.8,40.2-8.6,59
		c-0.5,3.2-0.3,5.9,0.2,8.9c2.4,16.6,4.8,33.2,7.2,49.8c0.3,1.7,0.4,4.2,1.1,4.4c0.7,0.3,0.9-2.3,1.1-4c2.4-16.6,4.8-33.1,7.3-49.7
		c0.4-2.8,0.8-5.8,0.4-9C63.8,450.4,61,431.4,57.9,410.2z M18.5,805.5c3.1-21,5.8-39.6,8.5-58.2c0.6-4,0.3-7.7-0.2-11.4
		c-2.3-16.1-4.7-32.1-7-48.2c-0.3-1.7-0.4-4.2-1.1-4.4c-0.7-0.2-0.8,2.4-1.1,4.1c-2.5,16.8-4.9,33.6-7.4,50.4
		c-0.4,2.6-0.7,5.3-0.3,8.2C12.6,765.1,15.4,784.2,18.5,805.5z M18.2,263.8c0.4-1.3,0.7-1.7,0.8-2.4c2.6-17.8,5.2-35.6,7.8-53.4
		c0.5-3.6,0.5-7.1,0-10.7c-2.5-16.8-4.9-33.7-7.3-50.5c-0.7-4.6-1.3-4.7-2,0c-1.7,12-3.2,24.6-5.3,35.8c-2.6,14.1-2.7,26.4,0,40.7
		C14.6,235.9,16.2,250,18.2,263.8z"/>
</g>
</svg>
