<?xml version="1.0" encoding="utf-8"?>
<!-- Generator: Adobe Illustrator 18.1.1, SVG Export Plug-In . SVG Version: 6.00 Build 0)  -->
<svg version="1.1" id="Layer_2" xmlns="http://www.w3.org/2000/svg" xmlns:xlink="http://www.w3.org/1999/xlink" x="0px" y="0px"
	 viewBox="0 0 813.7 198.2" style="enable-background:new 0 0 813.7 198.2;" xml:space="preserve">
<style type="text/css">
	.st0{opacity:0.8;}
	.st1{fill:#333333;}
</style>
<g class="st0">
	<g>
		<g>
			<path d="M389.6,8.4c0,0-37,4.9-127.5,12.4c-31.7,2.7-61.5,4-88.6,4c-27.1,0-42.7-1.4-46.8-1.8c-1.4-0.1-2.7-0.2-4-0.3
				c-2.3-0.1-6.1-0.2-11-0.2c-16.6,0-48.4,1.2-75.8,9C29.6,33.5,24,35.6,19.2,38C2.6,46.5-1.4,60.8,0.4,71.3
				C3,86.5,17.3,98,36.8,100.6c8.5,1.1,13.7,2.5,16.8,3.5c1.3,9.2,8.1,19,24.2,24.6c0.1,0.1,0.3,0.1,0.4,0.2
				c8.2,3.5,31.1,9.3,93.3,9.3c10.4,0,17.6,0.6,22.4,1.3c-2.6,8.4-1.2,17.5,4.2,25.1c10.3,14.4,31.9,23.2,70.1,28.4
				c26,3.5,60.1,5.3,101.3,5.3"/>
		</g>
		<g>
			<path class="st1" d="M389.1,8.4l0.5-0.1C392.7,8,467.1,0,533.3,0c41.5,0,70.3,3.1,88.1,9.6c7.5,2.7,13.7,7.1,18,12.6
				c1.6,2,10.6,12.1,36.2,15.1c6.6,0.8,14.1,1.5,22,2.3c62,6.2,100.6,11.6,112.8,35.2c4.7,9,4.3,19.4-1,29.2
				c-17.5,32.5-92.9,60.3-210.6,78.5c-22,3.4-45.4,6.5-70.3,9.1l-0.5,0c-0.8,0.1-80.2,6.7-158.7,6.7L389.1,8.4z"/>
		</g>
	</g>
</g>
</svg>
