<?xml version="1.0" encoding="utf-8"?>
<!-- Generator: Adobe Illustrator 18.1.1, SVG Export Plug-In . SVG Version: 6.00 Build 0)  -->
<svg version="1.1" id="Layer_2" xmlns="http://www.w3.org/2000/svg" xmlns:xlink="http://www.w3.org/1999/xlink" x="0px" y="0px"
	 viewBox="0 0 280.5 789.7" style="enable-background:new 0 0 280.5 789.7;" xml:space="preserve">
<style type="text/css">
	.st0{opacity:0.8;}
	.st1{fill:#333333;}
</style>
<g class="st0">
	<g>
		<g>
			<path d="M214.1,359c0,0-15-34.2-47.5-119c-11.4-29.7-21-58-28.6-84c-7.6-26-10.6-41.4-11.4-45.4c-0.2-1.4-0.5-2.6-0.9-3.9
				c-0.6-2.2-1.5-5.9-2.9-10.6c-4.6-15.9-14.6-46.2-29.8-70.3c-3.5-5.5-7.1-10.3-10.8-14.2C69.5-2,54.7-1.8,45,2.9
				C31.2,9.6,24.1,26.5,27.1,46c1.3,8.5,1.5,13.9,1.3,17.1c-8.5,3.9-16,13-16.8,30.1c0,0.2,0,0.3,0,0.5c-1,8.8-0.2,32.5,17.1,92.1
				c2.9,10,4.3,17,5,21.9c-8.8-0.1-17.2,3.7-23,11c-11,13.9-13.4,37.1-7.7,75.2c3.9,26,11.7,59.2,23.1,98.7"/>
		</g>
		<g>
			<path class="st1" d="M213.9,358.6l0.2,0.4c1.2,2.9,29.7,72.1,48.2,135.7c11.6,39.9,16.6,68.4,15.4,87.3c-0.5,7.9-3,15.1-7,20.8
				c-1.5,2.1-8.7,13.6-4.4,39c1.1,6.6,2.5,14,3.9,21.8c11.4,61.3,16.9,99.8-2.3,118.1c-7.3,7-17.4,9.5-28.3,7.2
				c-36.1-7.7-83.9-72.4-134.2-180.3C96,588.3,86.5,566.7,77,543.6l-0.2-0.5c-0.3-0.7-28.8-75.2-50.7-150.6L213.9,358.6z"/>
		</g>
	</g>
</g>
</svg>
