<?xml version="1.0" encoding="utf-8"?>
<!-- Generator: Adobe Illustrator 18.1.1, SVG Export Plug-In . SVG Version: 6.00 Build 0)  -->
<svg version="1.1" xmlns="http://www.w3.org/2000/svg" xmlns:xlink="http://www.w3.org/1999/xlink" x="0px" y="0px"
	 viewBox="0 0 1056.2 790.2" style="enable-background:new 0 0 1056.2 790.2;" xml:space="preserve">
<style type="text/css">
	.st0{fill:#113000;}
	.st1{fill:#A68B6A;}
	.st2{fill:#402D1C;}
	.st3{fill:#2E2010;}
	.st4{fill:#21170C;}
	.st5{fill:#332412;}
</style>
<g id="Layer_22">
	<g>
		<path class="st0" d="M201.7,159.9c0,0-28.6-20.5-29.8-52c-1.2-31.5,0-59.3,0-59.3s5.9-19.5,34.8,0c0,0,36,10.4,67.9,59.3
			L201.7,159.9z"/>
		<path class="st0" d="M781.3,362c-28.3,65.7-90.1,99.2-90.1,99.2c20.6,1,41.6,19.1,41.6,19.1l57.1-42.5c0,0,13-28.7,16.5-47
			c0,0,86.6,51.4,133.1,57.7c0,0,95.7,13.4,111.8-30.3s-13-65-13-65s-67.7-61-149.2-45.3l-39.8-28.1l-5.6-17.3l-8.5-20.5H815
			l-25.6,29.3l-14.6,39.9l-0.8,28.6L781.3,362z"/>
		<path class="st0" d="M785.9,138.5l11.4-20.4c0,0,3.1-16.1-3.1-30.7l-26-60.6L764.6,13c0,0-5.1-15.7,13-13c0,0,75.6,2.8,134.3,71.3
			c0,0,51.2,97.3-63,189.4l-5.2,1.6l-10.5-25.6L785.9,138.5z"/>
		<path class="st0" d="M471.3,790.2c0,0-16.9,6.7-9.4-15c7.5-21.7,14.6-32.3,14.6-32.3s18.1-22.8,35.4-34.6c0,0,35.8-63.4,55.9-71.7
			c0,0,0.9-80.1,74.2-156.9c0,0,54.9-41.9,90.8-1.8c0,0,39.4,48-5.1,144.5C727.6,622.5,603.6,768.2,471.3,790.2z"/>
		<path class="st0" d="M172.9,299.3c0,0-147.2,11.3-172,98.7c0,0-5.6,16.5,10.9,23.9c0,0,171.3,41,244.5-33.4
			C256.3,388.5,196.3,345.3,172.9,299.3z"/>
	</g>
</g>
<g id="Layer_29">
	<g>
		<path class="st1" d="M266.4,108.3l11.9,9.9c0,0-16.1,13.2-24.8,25.3l-38.8-5.9C214.7,137.5,225.6,114.2,266.4,108.3z"/>
		<path class="st1" d="M229.9,185.5c0,0-25.2-6.2-48,6.6c0,0-23.6,29.8-14.8,77.7c0,0,24.7-16.7,53.7-13.9
			C220.9,255.9,217.8,215.8,229.9,185.5z"/>
		<path class="st1" d="M240.2,309.6c0,0-34.3,8.3-38.5,30.8c0,0,29.8,33.7,54.6,48.1c0,0,0.4-23.6,21-41
			C277.4,347.5,258.9,333.8,240.2,309.6z"/>
		<path class="st1" d="M307.4,423.4c0,0,9.7-21.7,31.6-32.6c0,0,45.8,25.5,62.3,22.7c0,0-18,19.6-19.5,44.7
			C381.8,458.2,334.6,453.2,307.4,423.4z"/>
		<path class="st1" d="M465.7,448.8c0,0-10,15.6-10,31.5c0,0,27.2,9.4,57.3,8.6c0,0-2.1-16.5,5-28.3
			C518,460.6,488.6,463.1,465.7,448.8z"/>
		<polygon class="st1" points="641,448.5 641,482.7 692.3,460.6 690.4,422.1 		"/>
		<path class="st1" d="M781.3,362.2c0,0-6.8-24-25.9-40.1c0,0-3.7-73.9,36.5-99.6c0,0,24.2-20.5,63.1-25c0,0,17.6,14,5.8,31.7
			c0,0-44.1,14.2-60.2,48.4C800.5,277.6,782.9,342.5,781.3,362.2z"/>
	</g>
</g>
<g id="Layer_28">
	<g>
		<path class="st2" d="M266.4,108.3l11.9,9.9c0,0,37.3-26.2,81.8-42.2C360,75.9,293.3,77.3,266.4,108.3z"/>
		<path class="st2" d="M215.9,135.5c0,0-39.8,29.4-33.9,56.6c0,0,18.9-10.9,48-6.6c0,0,11.4-25.6,23.6-42.1L215.9,135.5z"/>
		<path class="st2" d="M167.2,269.8c0,0,23.6-17.4,53.7-13.9c0,0,4.5,28.8,18.9,54.3c0,0-31.8,6.9-38.1,30.2
			C201.7,340.4,164.2,304.4,167.2,269.8z"/>
		<path class="st2" d="M277.4,347.5c-20.9,17.1-21,41-21,41s36.6,30.4,51.1,34.8c0,0,15.2-30.4,33.3-32.9c0,0-27.7-17.1-39.5-31.4
			L277.4,347.5z"/>
		<path class="st2" d="M401.3,413.5c0,0,18.3,2.2,27.5-2.8c0,0,14.1,25.9,36.9,38.2c0,0-10,15.3-10,31.5c0,0-44.6-2.1-73.8-22.1
			C381.8,458.2,382.6,432.5,401.3,413.5z"/>
		<path class="st2" d="M517.7,460.4c0,0-8.6,13.4-5.7,28.4c0,0,77,11.6,129-6.7v-33.7c0,0-16.3,11.5-72.2,1.2
			C568.9,449.6,543.7,459,517.7,460.4z"/>
		<path class="st2" d="M689.3,422.1l3.5,38.5c0,0,54.7-18,88.5-98.4c0,0-10.4-33.2-26.7-41.4c0,0,0.8,39.6-12.8,55.1
			C741.8,375.9,729.2,397.3,689.3,422.1z"/>
	</g>
</g>
<g id="Layer_14">
	<path class="st3" d="M688.7,225.2l-74.4,61.4c0,0-45.7,72.9-46.8,163.8c0,0,49.2,9.8,71.6-0.8c22.4-10.6,49.6-26,49.6-26l35.4-92.1
		L688.7,225.2z"/>
	<path class="st3" d="M428.8,410.7L493.4,252l-37-59.8l-81.1,23.6l-74,143.3C301.2,359.1,369.7,429.2,428.8,410.7z"/>
	<path class="st3" d="M407.5,85l-59.8-5.5c-155.1,56.7-125.2,187.4-125.2,187.4s77.2-86.6,125.2-97.6
		C347.7,169.3,363.4,119.7,407.5,85z"/>
	<path class="st4" d="M347.7,169.3c0,0,15.7-49.6,59.8-84.3L446,66.2c42.4-2.7,90.3-3.1,138.1,1.7c0,0-91.5,29.8-127.7,124.3
		l-81.1,23.6L347.7,169.3z"/>
	<path class="st5" d="M636.5,75.7l28.7,34.7l60.7-5.3C725.9,105.1,686.6,83.3,636.5,75.7z"/>
	<path class="st3" d="M691.2,228.7L615,290.4l-38.3-82.1c0,0,34.2-68.6,85.6-100.6l60.3-4.7L762,122v30
		C762,152,725.3,176,691.2,228.7z"/>
	<path class="st5" d="M759.5,120.4c0,0,23.3,13,43.1,31.6l-44.8-1.2L759.5,120.4z"/>
	<path class="st4" d="M569.4,449.6c1.2-91,44.9-163,44.9-163l-37.4-81.1L493.4,252l-64.6,158.7c0,0,22.8,42.1,64.6,48.4
		C535.1,465.4,569.4,449.6,569.4,449.6z"/>
	<path class="st5" d="M375.3,215.8l-74,143.3c0,0-63.8-18.9-78.7-92.1c0,0,77.2-86.6,125.2-97.6L375.3,215.8z"/>
	<path class="st5" d="M665.6,108.4c-39.8,19.9-87.6,99.6-87.6,99.6l-85.3,46.3l-37.5-60.6c36.7-95.6,126-125.8,126-125.8
		c18.2,1.8,39.6,4.4,57.5,7.9L665.6,108.4z"/>
	<path class="st5" d="M347.7,80.2l61.5,5.7l41.6-19.7C450.7,66.2,384.7,63.7,347.7,80.2z"/>
	<path class="st4" d="M802.1,151.7c0,0,26,16.2,52.9,45.8c0,0-54.7,9.4-76.3,43.7c-21.6,34.3-22,43.4-23.2,80.9
		c0,0-22.4,0.3-31.3,9.4l-35.6-106c0,0,26.7-44.6,69.2-74.7L802.1,151.7z"/>
	<path class="st5" d="M686.7,423.6l36.5-94.8c0,0,12.2-10.9,32.2-9.7c0,0,2.1,39.5-10.9,55C731.4,389.6,721.7,402.1,686.7,423.6z"/>
</g>
</svg>
