<?xml version="1.0" encoding="iso-8859-1"?>
<!-- Generator: Adobe Illustrator 18.1.1, SVG Export Plug-In . SVG Version: 6.00 Build 0)  -->
<svg version="1.1" id="Layer_1" xmlns="http://www.w3.org/2000/svg" xmlns:xlink="http://www.w3.org/1999/xlink" x="0px" y="0px"
	 viewBox="0 0 1998 372.5" style="enable-background:new 0 0 1998 372.5;" xml:space="preserve">
<style type="text/css">
	.st0{fill:#FFFFFF;}
</style>
<path class="st0" d="M0,80.5c0,0,157.9-52,375.9,106s60.1-174-29.9-136s32-74,112-46s168.9,140,183.4,150s72.6,70,184.6,18
	s182-102,346-20s96-80,50-92s-112,0-112,0s59.8-86,179.9-36s180.1,146,180.1,146s60,20,112-12s62-108,206-92s210,71,210,71v235H0
	V80.5z"/>
</svg>
