<?xml version="1.0" encoding="utf-8"?>
<!-- Generator: Adobe Illustrator 18.1.1, SVG Export Plug-In . SVG Version: 6.00 Build 0)  -->
<svg version="1.1" xmlns="http://www.w3.org/2000/svg" xmlns:xlink="http://www.w3.org/1999/xlink" x="0px" y="0px"
	 viewBox="0 0 417 419" style="enable-background:new 0 0 417 419;" xml:space="preserve">
<g id="Layer_2">
</g>
<g id="Layer_1">
	<g>
		<g>
			<path style="fill:#FF931E;stroke:#FFFFFF;stroke-miterlimit:10;" d="M208.871,155.753c-21.454-18.843-25.414-45.558-6.829-68.046
				c18.816-22.767,26.875-43.173,8.405-65.741c-0.321-0.392,0.265-1.565,0.445-2.372c25.276,5.281,51.205,33.97,47.317,60.625
				c-0.686,4.705-3.616,11.302-7.344,13.563C216.551,114.597,215.059,116.35,208.871,155.753z"/>
		</g>
		<g>
			<path style="fill:#FF931E;stroke:#FFFFFF;stroke-miterlimit:10;" d="M250.163,172.799c-1.846-28.494,14.244-50.185,43.287-52.944
				c29.404-2.794,49.531-11.525,52.429-40.543c0.05-0.505,1.294-0.919,1.992-1.363c14.138,21.607,12.188,60.228-9.41,76.326
				c-3.813,2.842-10.549,5.434-14.783,4.397C284.695,149.128,282.401,149.313,250.163,172.799z"/>
		</g>
		<g>
			<path style="fill:#FF931E;stroke:#FFFFFF;stroke-miterlimit:10;" d="M266.371,213.825c18.843-21.454,45.558-25.414,68.046-6.829
				c22.767,18.816,43.173,26.875,65.741,8.405c0.392-0.321,1.565,0.265,2.372,0.445c-5.281,25.276-33.97,51.205-60.625,47.317
				c-4.705-0.686-11.302-3.617-13.563-7.344C307.527,221.505,305.774,220.014,266.371,213.825z"/>
		</g>
		<g>
			<path style="fill:#FF931E;stroke:#FFFFFF;stroke-miterlimit:10;" d="M249.856,253.464c28.494-1.846,50.185,14.244,52.944,43.287
				c2.794,29.404,11.525,49.531,40.543,52.429c0.505,0.05,0.919,1.294,1.363,1.992c-21.607,14.138-60.228,12.188-76.326-9.41
				c-2.842-3.813-5.434-10.549-4.397-14.783C273.527,287.996,273.342,285.702,249.856,253.464z"/>
		</g>
		<g>
			<path style="fill:#FF931E;stroke:#FFFFFF;stroke-miterlimit:10;" d="M209.381,270.782c21.454,18.843,25.414,45.558,6.829,68.046
				c-18.816,22.767-26.875,43.173-8.405,65.741c0.321,0.392-0.265,1.565-0.445,2.372c-25.276-5.281-51.205-33.97-47.317-60.625
				c0.686-4.705,3.617-11.302,7.344-13.563C201.701,311.938,203.193,310.185,209.381,270.782z"/>
		</g>
		<g>
			<path style="fill:#FF931E;stroke:#FFFFFF;stroke-miterlimit:10;" d="M168.088,254.266c1.846,28.494-14.244,50.185-43.287,52.944
				c-29.404,2.794-49.531,11.525-52.429,40.543c-0.05,0.505-1.294,0.919-1.992,1.363c-14.138-21.607-12.188-60.228,9.41-76.326
				c3.813-2.842,10.549-5.434,14.783-4.397C133.557,277.937,135.851,277.752,168.088,254.266z"/>
		</g>
		<g>
			<path style="fill:#FF931E;stroke:#FFFFFF;stroke-miterlimit:10;" d="M151.349,213.792c-18.843,21.454-45.558,25.414-68.046,6.829
				c-22.767-18.816-43.173-26.875-65.741-8.405c-0.392,0.321-1.565-0.265-2.372-0.445c5.281-25.276,33.97-51.205,60.625-47.317
				c4.705,0.686,11.302,3.617,13.563,7.344C110.194,206.112,111.947,207.603,151.349,213.792z"/>
		</g>
		<g>
			<path style="fill:#FF931E;stroke:#FFFFFF;stroke-miterlimit:10;" d="M168.232,172.656c-28.494,1.846-50.185-14.244-52.944-43.287
				c-2.794-29.404-11.525-49.531-40.543-52.429c-0.505-0.05-0.919-1.294-1.363-1.992c21.607-14.138,60.228-12.188,76.326,9.41
				c2.842,3.813,5.434,10.549,4.397,14.783C144.561,138.124,144.746,140.418,168.232,172.656z"/>
		</g>
	</g>
</g>
</svg>
